<?xml version="1.0" standalone="no"?><!DOCTYPE svg PUBLIC "-//W3C//DTD SVG 1.1//EN" "http://www.w3.org/Graphics/SVG/1.1/DTD/svg11.dtd"><svg t="1620199606036" class="icon" viewBox="0 0 1029 1024" version="1.1" xmlns="http://www.w3.org/2000/svg" p-id="21841" xmlns:xlink="http://www.w3.org/1999/xlink" width="200.9765625" height="200"><defs><style type="text/css"></style></defs><path d="M861.696 923.648H168.448c-90.112 0-163.84-73.216-163.84-163.84v-471.04c0-90.112 73.216-163.84 163.84-163.84h693.248c90.112 0 163.84 73.216 163.84 163.84v471.552c0 90.112-73.216 163.328-163.84 163.328zM168.448 164.864C100.352 164.864 44.544 220.16 44.544 288.768v471.552c0 68.096 55.296 123.904 123.904 123.904h693.248c68.096 0 123.904-55.296 123.904-123.904V288.768c0-68.096-55.296-123.904-123.904-123.904H168.448z" fill="#409EFF" p-id="21842"></path><path d="M852.992 676.864h-3.072c-66.048 0-124.928 53.76-125.44 54.272-7.168 8.704-19.456 25.088-31.232 25.6-11.776 0.512-15.872-3.584-24.064-11.264L380.416 465.92 28.672 758.272s-31.232-37.888-14.848-51.712L353.28 422.912c16.384-13.312 40.96-12.8 55.808 2.048l281.088 270.336c6.656-6.144 14.848-12.288 23.04-18.944 46.08-34.304 95.232-51.712 141.824-50.176 30.72 1.024 59.904 9.728 87.552 26.112 28.672 17.408 55.808 43.52 79.872 77.824 12.288 17.408 7.168 40.96-11.264 52.224-6.656 4.096 8.192 0 0 0 0.512 0.512-68.096-91.648-158.208-105.472z m-126.464-169.472c-76.288 0-137.728-61.44-137.728-137.728s61.952-137.728 137.728-137.728 137.728 61.952 137.728 137.728-61.952 137.728-137.728 137.728z m0-235.52c-53.76 0-97.792 44.032-97.792 97.792s44.032 97.792 97.792 97.792c53.76 0 97.792-44.032 97.792-97.792 0-53.76-44.032-97.792-97.792-97.792z" fill="#409EFF" p-id="21843"></path></svg>