<?xml version="1.0" standalone="no"?><!DOCTYPE svg PUBLIC "-//W3C//DTD SVG 1.1//EN" "http://www.w3.org/Graphics/SVG/1.1/DTD/svg11.dtd"><svg t="1619593919051" class="icon" viewBox="0 0 1024 1024" version="1.1" xmlns="http://www.w3.org/2000/svg" p-id="12876" xmlns:xlink="http://www.w3.org/1999/xlink" width="200" height="200"><defs><style type="text/css"></style></defs><path d="M439.8 827h-185l203.3-203.1c14.6-15.1 14.4-39.1-0.5-54-14.9-14.9-38.9-15.1-54-0.5L197.1 775.7V592.5c0-21.3-17.3-38.6-38.6-38.6S120 571.2 120 592.5v273c0 21.2 17.3 38.5 38.6 38.5h281.2c21.3 0 38.5-17.2 38.6-38.5-0.1-21.2-17.3-38.5-38.6-38.5zM865.6 120H584.4c-21.3 0-38.5 17.2-38.5 38.5s17.2 38.5 38.5 38.5h184.9L566 400c-11.1 11-14.5 27.6-8.5 42 6 14.4 20.1 23.8 35.8 23.7 10.2 0 20-4 27.2-11.3L827 248.1v183.3c0 21.3 17.2 38.5 38.5 38.5s38.5-17.2 38.5-38.5v-273c0-10.2-4-20-11.3-27.2-7.2-7.2-17-11.2-27.1-11.2z" p-id="12877"></path></svg>