<svg id="图层_1" data-name="图层 1"
    xmlns="http://www.w3.org/2000/svg"
    xmlns:xlink="http://www.w3.org/1999/xlink" viewBox="0 0 600 600">
    <defs>
        <style>.
            cls-1{
                fill:url(#未命名的渐变_124);
            }
            .cls-2{
                fill: #29e066;
                stroke:#fff;
                stroke-miterlimit:10;
                stroke-width:2px;
            }
            .cls-3{
                fill:url(#未命名的渐变_291);
            }
            .cls-4{
                fill:url(#未命名的渐变_124-2);
            }
            .cls-5{
                fill:url(#未命名的渐变_291-2);
            }
        </style>
        <linearGradient id="未命名的渐变_124" x1="528.27" y1="116.49" x2="205.15" y2="198.28" gradientTransform="translate(5.01 59.1) rotate(-3.37)" gradientUnits="userSpaceOnUse">
            <stop offset="0" stop-color="#1f5d6d"/>
            <stop offset="0.48" stop-color="#133e4d"/>
            <stop offset="1" stop-color="#041826"/>
        </linearGradient>
        <linearGradient id="未命名的渐变_291" x1="143.54" y1="193.6" x2="503.71" y2="193.6" gradientUnits="userSpaceOnUse">
            <stop offset="0" stop-color="#004148"/>
            <stop offset="0.25" stop-color="#35696d" stop-opacity="0.91"/>
            <stop offset="0.78" stop-color="#bbcdca" stop-opacity="0.7"/>
            <stop offset="1" stop-color="#f5f9f2" stop-opacity="0.6"/>
        </linearGradient>
        <linearGradient id="未命名的渐变_124-2" x1="346.89" y1="-32.42" x2="179.05" y2="344.66" xlink:href="#未命名的渐变_124"/>
        <linearGradient id="未命名的渐变_291-2" x1="129.1" y1="194.56" x2="424.56" y2="194.56" xlink:href="#未命名的渐变_291"/>
    </defs>
    <title>未标题-1</title>
    <path class="cls-1" d="M211.8,144.69a9.93,9.93,0,0,1-1.2-3.16c-2.25-11.81-25.83-88.17,9.49-83.65,37.47,4.79,34,14.41,45.87,10.57s17.36-17.15,45.62-9S342.34,72,352.29,73.67s32.46-4.15,48.25,5.23,20,20.77,29.57,22.9,24.61,7.06,33.7,16.83,31.07,33.12,39.71,50.53,15.39,25.54,16.26,47.89-2.68,38.68,8,63.14c3.49,9.65-4.28,14.59-11.4,23.07S495.12,330.83,490.55,337s-7.59,15.74-17.33,17.66-9.64-3.92-18.86-.68c-3.34,1.17-11.15,6.19-13.71,6.62-4.26.71-10.57-.63-12.48-4.5l-47-114.29a9.8,9.8,0,0,0-7.14-5.33L258.51,216.72a9.85,9.85,0,0,1-6.79-4.67Z"/>
    <path class="cls-2" d="M211.8,144.69a9.93,9.93,0,0,1-1.2-3.16c-2.25-11.81-25.83-88.17,9.49-83.65,37.47,4.79,34,14.41,45.87,10.57s17.36-17.15,45.62-9S342.34,72,352.29,73.67s32.46-4.15,48.25,5.23,20,20.77,29.57,22.9,24.61,7.06,33.7,16.83,31.07,33.12,39.71,50.53,15.39,25.54,16.26,47.89-2.68,38.68,8,63.14c3.49,9.65-4.28,14.59-11.4,23.07S495.12,330.83,490.55,337s-7.59,15.74-17.33,17.66-9.64-3.92-18.86-.68c-3.34,1.17-11.15,6.19-13.71,6.62-4.26.71-10.57-.63-12.48-4.5l-47-114.29a9.8,9.8,0,0,0-7.14-5.33L258.51,216.72a9.85,9.85,0,0,1-6.79-4.67Z"/>
    <path class="cls-3" d="M503.65,288.06c-5-5.2-12.07-7.59-19.09-8.6-8.15-1.17-16.49-1.4-24.7-1.89-4.42-.26-8.94-.79-13.39-.75a113.56,113.56,0,0,0-41.13-19.17c-16.28-3.9-33.13-4.61-49.81-4.41-16.85.19-33.68,1.39-50.54,1.23a191.73,191.73,0,0,1-33.06-2.81c5.72-1,11.37-2.37,17-3.72,7.35-1.75,14.69-3.6,21.88-5.94,6.94-2.26,13.72-5,20.41-7.88,13.27-5.75,26.19-12.34,39.68-17.58a142.1,142.1,0,0,1,41.25-9.74,112.8,112.8,0,0,1,13.26-.15c.57.3,1.13.61,1.69.93a42.87,42.87,0,0,1,5.14,3.42,69.65,69.65,0,0,1,8.53,8c5.58,6.14,10.26,13,15.15,19.69a52.94,52.94,0,0,0,8.85,9.7c.19.17.48-.11.28-.28-6.42-5.4-10.47-12.65-15.12-19.49s-10-13.29-16.54-18.14a45.5,45.5,0,0,0-5.48-3.51l-.42-.23a91,91,0,0,1,30.43,7.29c.7.31,1.32-.72.61-1.05-15.18-7-31.8-9.31-48.29-8.18,7.38-2.43,13.89-7.21,20.16-11.69,6.81-4.86,13.79-9.71,21.69-12.66A43.19,43.19,0,0,1,466.62,178a.1.1,0,0,0,0-.19,45.54,45.54,0,0,0-12.56,1.67A58,58,0,0,0,443,184.11c-7.44,4-14.25,9.16-21.48,13.56a110.31,110.31,0,0,1-12.94,6.63.36.36,0,0,0-.22.26s-.06,0-.09,0l-.31.14a3,3,0,0,0-.31.15l-.31.22a137.26,137.26,0,0,0-29.82,6.27c-13.85,4.53-27.08,10.74-40.39,16.64-6.54,2.9-13.12,5.7-19.84,8.15a216.84,216.84,0,0,1-21.77,6.5c-8.36,2.07-16.76,4.24-25.26,5.65-.79.13-1.58.25-2.38.36.2-.13.39-.27.58-.41a104.28,104.28,0,0,0,14.22-12.84c9.13-9.69,17.49-20.11,26.18-30.21,17.09-19.87,35.14-39.51,56.87-54.41a47.81,47.81,0,0,1,16.57-2.14,103.54,103.54,0,0,1,18,2.91c11.3,2.59,22.92,6,34.63,4.66a31.31,31.31,0,0,0,15.79-6c.13-.1,0-.31-.17-.22-9.49,6.13-21.29,6.83-32.16,4.91-12-2.12-23.43-6.67-35.65-7.41a45.1,45.1,0,0,0-13.68,1c12.62-8.28,27.55-15.89,43-13.05.09,0,.14-.13,0-.15-13.85-2.71-27.65,2.75-39.49,9.51a176.9,176.9,0,0,0-16.12,10.46l.11-.15c1.24-1.63,2.43-3.28,3.59-5a111.37,111.37,0,0,0,6.29-10.29,80.53,80.53,0,0,0,8.19-21.8A59.09,59.09,0,0,0,375.76,105a.12.12,0,0,0-.23,0c-.7,15.49-6.82,30.26-15.35,43q-1.77,2.64-3.66,5.19a49.8,49.8,0,0,0-3.5,4.7q-6.69,5.1-12.95,10.69c-20.16,18.06-37.24,39.07-55.26,59.18a133.8,133.8,0,0,1-15.75,15.38,63.89,63.89,0,0,1-5.8,4.11,16.16,16.16,0,0,1-.34-4.49,50.88,50.88,0,0,1,1.48-7.43q1.94-8.1,4.29-16.09c3.08-10.52,6.69-20.85,10.36-31.18,4.34-12.19,9-24.27,13.46-36.41a57.23,57.23,0,0,1,5.25-5.54c4.14-3.87,8.63-7.35,12.88-11.11a146.08,146.08,0,0,0,23-25,91.18,91.18,0,0,0,9.25-17s0,0,0,0c-4.75,10.56-11.9,20.18-19.73,28.64-3.9,4.21-8,8.21-12.32,12s-8.62,7.2-12.77,11c-1.51,1.37-3.05,2.83-4.51,4.39,2.85-7.79,5.62-15.62,8.17-23.52,1.9-5.87,3.8-11.77,5.3-17.76,1.45-5.81,2.46-11.91.77-17.77a.27.27,0,0,0-.52.14c1.39,5.72.22,11.53-1.47,17-1.64,5.32-3.48,10.59-5.34,15.84-.23.65-.48,1.29-.71,1.94a38.25,38.25,0,0,0-2.62-13.8,37.67,37.67,0,0,0-4.92-9c-2.28-3.07-5.24-5.53-7.54-8.57-2.71-3.58-4.42-7.79-6.09-11.92,0-.1-.19-.06-.16,0a60.49,60.49,0,0,0,4.12,9.87c1.88,3.32,4.59,5.91,7,8.78a36.31,36.31,0,0,1,8.42,19,49.23,49.23,0,0,1-.05,10.58c-3,8.25-6.19,16.45-9.38,24.63-8.1,20.81-16.43,41.54-22.8,63-1.76,5.91-3.37,11.87-4.78,17.88-.87,3.66-2.48,9-.73,12.66a19.27,19.27,0,0,1-4.42-6.5c-2.4-5.78-2.22-12.25-1.85-18.37.4-6.77.78-13.5.81-20.28s-.16-13.77-.35-20.66c-.37-13.75-.73-27.6-1.95-41.35a.37.37,0,0,0,.24-.42,46,46,0,0,1-.09-15.35,59.4,59.4,0,0,1,4.51-13.73c3.34-7.7,7-15.59,5.88-24.21a18.51,18.51,0,0,0-5.14-10.79c-.15-.15-.37.07-.23.23,5.41,6,4.9,15.1,2.68,22.3-2.73,8.8-7.85,16.8-9.32,26-.08.49-.13,1-.19,1.46a197.12,197.12,0,0,0-4.39-22.15c-2.83-10.79-6.92-23.34-17.63-28.7-.54-.27-1,.52-.48.8,9.71,5.18,13.54,16.49,16.09,26.49a218.27,218.27,0,0,1,5.89,39.49c.88,13.13,1,26.3,1,39.45,0,6.89.08,13.77-.08,20.66S250.55,216,250,222.86c-.58,7-.75,14.36,2.07,21a25.66,25.66,0,0,0,1.57,3.09c-.77-.48-1.54-1-2.3-1.48a82.45,82.45,0,0,1-16.7-15.28c-10.57-12.62-17.17-27.78-20.76-43.75-4.35-19.31-4.86-39.19-7.61-58.74-2.52-17.89-6.84-35.89-17.07-51.06a67,67,0,0,0-16.86-17.51c-6.57-4.61-14.91-8.17-23.07-6.47A15.26,15.26,0,0,0,143.92,55a.82.82,0,0,0,.83,1.41c7.64-4.12,16.85-1.22,23.73,3.08A61.46,61.46,0,0,1,186,76.46c10.4,14.81,15,32.71,17.31,50.44,2.47,19.37,2.74,39,6.54,58.2,3.21,16.18,9.37,31.62,19.44,44.77a88.91,88.91,0,0,0,16.22,16.44q1.71,1.33,3.53,2.62a37.75,37.75,0,0,0-4-.06.77.77,0,0,0-.38,1.42,18.38,18.38,0,0,0,7.71,2.48c-.64.31-1.28.62-1.91,1-1.17.65-.7,2.74.71,2.62a16.24,16.24,0,0,0,4.67-1.05c.77-.29,1.53-.61,2.28-.94a37.79,37.79,0,0,0,7.29,2.67c1.84.46,3.69.86,5.56,1.18a1.17,1.17,0,0,0,.62-2.26c-.63-.25-1.26-.52-1.89-.79,1,.19,2,.37,3,.54a186.4,186.4,0,0,0,24.5,2.37c16.61.58,33.21-.49,49.8-1s33-.7,49.3,2a120.3,120.3,0,0,1,44.72,16.86,108.54,108.54,0,0,1,18.55,14.89c.51.51,1,1,1.51,1.54a45.89,45.89,0,0,0-.25,5c-.16,2-.36,3.91-.58,5.86-.41,3.78-.86,7.57-1.07,11.37-.36,6.88.23,13.88,3,20.27.14.33.71.09.57-.24-2.65-6.57-2.84-13.72-2.3-20.7.29-3.74.8-7.47,1.27-11.19.22-1.79.44-3.57.61-5.37.1-1,.31-2.14.39-3.25a66.69,66.69,0,0,1,11.48,16.14,39.35,39.35,0,0,1,2.24,5.75.35.35,0,0,0,.68-.19c-1.84-7.91-6.14-14.73-11.32-20.89a111.63,111.63,0,0,0-17.13-16.39c4,.36,8,.41,11.93.65,5.27.31,10.55.57,15.82.85,9.42.51,19.74,1.57,26.92,8.37A.21.21,0,0,0,503.65,288.06Z"/>
    <path class="cls-4" d="M215.11,583.82a9.81,9.81,0,0,0,8.33-10.27c-1.61-27.31-4.73-23.69-5.26-84.31-.75-84.3,18-187.89,29.14-203.91s25.05-15.94,31.95-12.76,14.46,9.71,28.32,9.21,31.68-2.19,42.75,3.08,23.85,9.45,30.76,20.25S404,336,413,344.9s19.55,20,25.91,14,.95-14.38.82-24.15,4.24-19.39-5.23-28-8.58-31.56-10.13-42.67-7.42-26.48-18.32-37.12c-9.89-9.65-28-21.85-33.65-24.47-3.2-1.49-24.05-15.33-64.76,4.2,0,0-7.95,4.5-22,4-8.5-.33-22.24-4.08-29.44-17.57-8.56-16.08-4.08-24.59,3-33.52s20.82-26.77,19.27-37.87S267.13,89.15,252,83.32,230.73,64.41,230.7,48.73,195.15,18.12,178.08,23.6s-62.34,5.3-67.51,24.14S98.33,90,133.05,107.61c.21.11.43.23.64.36,22.13,13.72,35.44,13,43,35.78,7.48,22.44,25.93,77.08,47.24,98.19a9.62,9.62,0,0,1,2,2.84c6.42,14.15,7.41,27.29,3.08,41.63-4.49,14.92-15.77,67.65-24.53,125.53-8.29,54.86-1.29,148.45-.63,162.64a9.8,9.8,0,0,0,11.26,9.24Z"/>
    <path class="cls-2" d="M215.11,583.82a9.81,9.81,0,0,0,8.33-10.27c-1.61-27.31-4.73-23.69-5.26-84.31-.75-84.3,18-187.89,29.14-203.91s25.05-15.94,31.95-12.76,14.46,9.71,28.32,9.21,31.68-2.19,42.75,3.08,23.85,9.45,30.76,20.25S404,336,413,344.9s19.55,20,25.91,14,.95-14.38.82-24.15,4.24-19.39-5.23-28-8.58-31.56-10.13-42.67-7.42-26.48-18.32-37.12c-9.89-9.65-28-21.85-33.65-24.47-3.2-1.49-24.05-15.33-64.76,4.2,0,0-7.95,4.5-22,4-8.5-.33-22.24-4.08-29.44-17.57-8.56-16.08-4.08-24.59,3-33.52s20.82-26.77,19.27-37.87S267.13,89.15,252,83.32,230.73,64.41,230.7,48.73,195.15,18.12,178.08,23.6s-62.34,5.3-67.51,24.14S98.33,90,133.05,107.61c.21.11.43.23.64.36,22.13,13.72,35.44,13,43,35.78,7.48,22.44,25.93,77.08,47.24,98.19a9.62,9.62,0,0,1,2,2.84c6.42,14.15,7.41,27.29,3.08,41.63-4.49,14.92-15.77,67.65-24.53,125.53-8.29,54.86-1.29,148.45-.63,162.64a9.8,9.8,0,0,0,11.26,9.24Z"/>
    <path class="cls-5" d="M424.54,334.15a32.52,32.52,0,0,1-20.08-15.7c-2.35-4.44-3.12-9.41-3.75-14.34-.72-5.54-1.35-11.11-2.23-16.64a33.07,33.07,0,0,0-1.92-8.17c0-.08-.07-.15-.1-.22a55.16,55.16,0,0,1,20.37,22.71c.09.2.39,0,.3-.18a53.6,53.6,0,0,0-20.06-24.29,68.1,68.1,0,0,0-15.93-7.27c.35-.08.7-.16,1-.22,1.91-.36,3.81-.69,5.73-1a62.55,62.55,0,0,1,11.68-.69,38.92,38.92,0,0,1,9.94,1.7,26.88,26.88,0,0,1,9.22,4.67c.27.23.67-.17.39-.4a29.17,29.17,0,0,0-8.51-5.19,37.34,37.34,0,0,0-10-2.13,58.94,58.94,0,0,0-11.95.46c-2,.25-4,.56-5.93.91a25.8,25.8,0,0,0-4.72.9,159.34,159.34,0,0,0-15.91-3.5c-25.81-4.54-52.12-4.07-78.18-5.88-2.31-.16-4.63-.32-7-.5.5,0,1,0,1.49,0a146.24,146.24,0,0,0,29.12-4.37c15.92-3.91,31.17-10,46.76-15,1.49.32,3,.81,4.46,1.12,1.79.37,3.55.82,5.31,1.31,3.31.92,6.62,1.9,9.89,3,6.3,2,12.48,4.43,17.79,8.47.14.11.32-.13.19-.25-4.87-4.48-11-7.26-17.24-9.32-3.33-1.1-6.68-2.11-10.05-3.07-1.83-.52-3.67-1-5.53-1.39a23,23,0,0,0-2.75-.36H356c3.13-1,6.27-1.92,9.43-2.79,10.31-2.8,22.29-4.75,31.54,2,.28.21.55-.27.27-.47-7.42-5.48-17.06-5.45-25.74-3.69-3.27.66-6.51,1.48-9.74,2.37,1.69-1.42,3.24-3,4.93-4.45a66.55,66.55,0,0,1,6.33-4.75,69.71,69.71,0,0,1,13.57-7s0-.1,0-.08a73,73,0,0,0-13.73,6.78c-2.08,1.32-4.1,2.75-6,4.27a33.39,33.39,0,0,0-5.88,5.38s0,.06,0,.09c-6.18,1.74-12.31,3.77-18.4,5.66-19.24,6-38.73,12.39-58.94,13.85a106.54,106.54,0,0,1-16.47,0c-2.15-.18-4.3-.46-6.43-.81,3-1.35,6-3,8.81-4.58,4.55-2.6,8.89-5.56,13.15-8.59,4.57-3.26,9.07-6.62,13.6-9.92a22.11,22.11,0,0,1,3.61-1.11,34.71,34.71,0,0,1,5.66-.5c3.81-.12,7.62-.22,11.42-.39a131.76,131.76,0,0,0,22.58-2.72,55.15,55.15,0,0,0,12.09-4c.11-.05,0-.23-.08-.2a115.24,115.24,0,0,1-22.94,4.71c-7.73.75-15.52.88-23.28,1.14a38.83,38.83,0,0,0-5.38.41l.22-.15a.27.27,0,0,0,.23-.16h0c2.75-2,5.52-3.89,8.35-5.73,2.48-1.62,5.05-3.1,7.55-4.68s5.25-3.23,8-4.62c.45-.23,0-.86-.4-.67a100.89,100.89,0,0,0-14.17,7.3c-2.89,1.82-5.71,3.73-8.51,5.69a19,19,0,0,1,1-2.77,29.9,29.9,0,0,1,2.89-4.95,52.5,52.5,0,0,1,8-8.61c.11-.1-.05-.26-.17-.17a50.16,50.16,0,0,0-8.33,8.65,28.94,28.94,0,0,0-3,5.06,22.39,22.39,0,0,0-1.36,3.49q-1.86,1.31-3.69,2.63c-8.59,6.16-17.15,12.42-26.35,17.66-2.56,1.45-5.14,2.85-7.79,4.13-2.09,1-4.23,1.87-6.35,2.79l-1.9-.42a23.4,23.4,0,0,1-.33-5.5,41.64,41.64,0,0,1,1.86-7.53,44.71,44.71,0,0,1,1.65-4.53c9.95,1.65,19.1-5.82,24.55-13.4.16-.23-.21-.52-.39-.3a42,42,0,0,1-10.62,9.44,22.76,22.76,0,0,1-13,3,38.57,38.57,0,0,1,5-8.16c.19-.22-.11-.55-.33-.33a44.73,44.73,0,0,0-8.79,12.2c-.08-1.12-.09-2.26-.1-3.42,0-2.7,0-5.4-.09-8.1-.14-5.36-.46-10.8.66-16.09a.11.11,0,0,0-.22-.06c-1.3,5.37-1.36,10.91-1.55,16.4-.1,2.86-.11,5.73-.15,8.59a18.61,18.61,0,0,0,.33,5.42,31,31,0,0,0-1.72,7.28,12.6,12.6,0,0,0,.14,4l-1.16-.89c-.85-1.47-1.76-2.92-2.55-4.43a33.53,33.53,0,0,1-2.47-6.42,111.12,111.12,0,0,1-2.91-15.14,275.49,275.49,0,0,1-2.24-33.11c-.13-7.78-.17-15.56-.22-23.34a.65.65,0,0,0,.11-.22c1-3.69,1.68-7.44,3-11a84.86,84.86,0,0,1,5-10.74c3.54-6.73,7.43-13.33,9.65-20.66a32.81,32.81,0,0,0,1.5-12.56.32.32,0,0,0-.63,0c-.57,15.89-11.2,28.22-16.93,42.41-.61,1.52-1.22,3.1-1.71,4.7,0-.7,0-1.41,0-2.11a293.58,293.58,0,0,0-1.82-33A62.45,62.45,0,0,0,234.28,112a30.14,30.14,0,0,0-8-11.69c-.23-.2-.55.12-.34.33,6.43,6.37,8.39,16.38,9.46,25,.07.56.12,1.11.19,1.66-.18-.33-.36-.67-.55-1a85,85,0,0,0-7.34-10q-4.36-5.53-8.46-11.26a84.39,84.39,0,0,1-7.38-11.37c-2.27-4.54-3.69-10.22-2-15.18.08-.24-.27-.32-.36-.1-3.31,8.48,1.16,16.52,5.95,23.42q4.06,5.84,8.4,11.47c2.69,3.5,5.58,6.85,8.15,10.43a26.14,26.14,0,0,1,4.08,8.18c.78,8.8,1,17.66,1,26.48.1,22.24-1.41,44.52,1.47,66.66a119.77,119.77,0,0,0,3.21,17.22c.32,1.13.68,2.31,1.1,3.49-14.37-15.26-21.88-36.24-28.07-56.07C208,167.87,202.66,145.44,194.71,124c0-9-1.43-18.06-2.33-27-.91-9.11-1.57-18.28-2.94-27.33a60.49,60.49,0,0,0-4.26-14.57c-.11-.26-.53-.16-.43.11A64.45,64.45,0,0,1,187.57,68c.67,4.46,1.07,9,1.5,13.45q1.35,14.15,2.64,28.31c.26,2.92.52,5.82.89,8.7-1.74-4.38-3.59-8.73-5.62-13-6.55-13.81-14.76-26.77-25.38-37.83-.37-.38-.93.19-.58.58,9.59,10.75,17,23,23.17,36-.73-.85-1.48-1.68-2.25-2.48A76.37,76.37,0,0,0,170.29,92c-4.84-3.37-9.95-6.32-15.06-9.24-4.92-2.82-10.09-5.48-14.59-9-5-3.89-7.85-9.27-10.46-14.94-.32-.69-1.33-.09-1,.6,2.13,4.82,4.42,9.69,8.25,13.42s8.79,6.4,13.42,9.1c9.75,5.7,19.8,11.19,28,19.09a57.08,57.08,0,0,1,5.82,6.51c.89,1.16,1.73,2.37,2.5,3.61.21.34.42.68.62,1,4.2,10,7.73,20.22,10.88,30.44,4.54,14.77,8.41,29.73,12.89,44.51,4,13.22,8.38,26.46,14.67,38.79,5.27,10.33,12.08,20.25,21,27.69a13.87,13.87,0,0,0,4.59,3.55l.41.19.62.42a1.14,1.14,0,0,0,.74.2,35.63,35.63,0,0,0,5.39,1.74A111.64,111.64,0,0,0,276.27,262c12.93,1,25.9,1.31,38.85,1.75s26.17,1.07,39.15,2.79c12.36,1.64,25.27,3.93,36.57,9.44.2.09.4.2.6.3a11.17,11.17,0,0,1,3.54,5.34,61.22,61.22,0,0,1,1.51,7.95c.83,5.59,1.33,11.23,2.29,16.81.81,4.74,1.94,9.3,4.57,13.39a31.82,31.82,0,0,0,8.38,8.62,39,39,0,0,0,12.79,5.87S424.58,334.16,424.54,334.15Z"/>
</svg>