<svg xmlns="http://www.w3.org/2000/svg" viewBox="0 0 301.11 318.88"><defs><style>.cls-1{fill:#ffdec5;}.cls-2{fill:#feffc2;}.cls-3{fill:#fff;}.cls-4,.cls-5{fill:none;stroke:#000;stroke-linecap:round;stroke-linejoin:round;}.cls-4{stroke-width:2.5px;}.cls-5{stroke-width:4px;}</style></defs><title>黑玫瑰</title><g id="图层_2" data-name="图层 2"><g id="图层_1-2" data-name="图层 1"><path class="cls-1" d="M178.77,59.42h0a19.56,19.56,0,0,0-.57,4.44c-2-1.56-3-1.93-5.07-4.42-2.58-3.16-3.48-6-4-6.09l-.14,0a6.93,6.93,0,0,0,4.35-1,5.32,5.32,0,0,0,2.37,1.71C176.07,56.25,176.91,58.33,178.77,59.42Z"/><path class="cls-1" d="M183.24,65.24s11.24,1.68,15.43-1.16c2.31-1.56,5.4-3.6,7.88-5.24h0c.32-.1,6.11-1.92,5.38,3.33h0c-2.28,2.1-5.17,4.31-12.58,8.57a13,13,0,0,1-3.92,1.49l-.12,0c-1.16.13-4.28.33-6.15-1.15s-4.29-3.77-6.82-5C182.66,65.85,183,65.55,183.24,65.24Z"/><path class="cls-1" d="M163.22,18.63a14.18,14.18,0,0,1,4.66,5.58,14.48,14.48,0,0,0-2.4,8.8c-5.34-1.57-3.45-6.19-2.48-13.09q.09-.63.21-1.29Z"/><path class="cls-1" d="M166.77,40.72c.34,1.05.58,1.11.58,1.11h.57a7.17,7.17,0,0,0,1.35,2.93s.87,2.5,2.69,3h0a7.59,7.59,0,0,0,1.41,4.59,6.93,6.93,0,0,1-4.35,1,11,11,0,0,1-2.93-1.42l-.06,0c-1.23-1-2.6-2.35-4.4-4.09-9.42-9.62-9.2-16.62-9.2-16.62l1.37-1.25c1.38-1.25,1-4.25,1.38-11.75a31.94,31.94,0,0,1,4-13.5s4.12,6.25,3.81,10.75l.91.24c-.28,1-.51,2-.7,3q-.12.66-.21,1.29c-1,6.9-2.86,11.52,2.48,13.09,0,.37.05.76.1,1.16A35.28,35.28,0,0,0,166.77,40.72Z"/><path class="cls-1" d="M168.44,3.13s6.38,4.53,9.25,11.5a17,17,0,0,0-5.92,4.7c-.52.61-1.07,1.23-1.62,1.89a20.55,20.55,0,0,0-5.72-7.41A95,95,0,0,1,168.44,3.13Z"/><path class="cls-1" d="M183.7,6.85c-.92,3.39-.23,9.26-.19,9.57a9.9,9.9,0,0,0-4.24-2s-1.33-9.1-.91-13.18C181.11,4.08,183.7,6.85,183.7,6.85Z"/><path class="cls-1" d="M186.65,7.23c.33-.1,6.45-1.9,10.74.26-1.23,1.69.06,6.43.14,6.72a18.25,18.25,0,0,0-3.76-.41C190.71,13.78,188.44,10.3,186.65,7.23Z"/><path class="cls-1" d="M197.39,7.49A1.39,1.39,0,0,1,198,7c2.25-.91,4.63,2.89,5.88,4.64a21.09,21.09,0,0,0,3.93,3.68l.05.12c-2.1.86-2.34,4.06-2.34,4.06a12.76,12.76,0,0,0-8-5.29C197.45,13.92,196.16,9.18,197.39,7.49Z"/><path class="cls-1" d="M209.66,15.31a10.55,10.55,0,0,1,6.84,4.51c-3.4-.48-8.28,5.1-8.28,5.1a28.77,28.77,0,0,0-2.7-5.42s.24-3.2,2.34-4.06A3.27,3.27,0,0,1,209.66,15.31Z"/><path class="cls-1" d="M219.68,30.08c-3-2.5-10-.9-10-1.08h0c-.43-1.35-.92-2.75-1.44-4.09,0,0,4.88-5.58,8.28-5.1a2.3,2.3,0,0,1,.81.24c3.37,1.68,3.32,7.19,2.82,10.41Z"/><path class="cls-1" d="M227.19,27.83c2,.22,5.64,4.67,4.49,8.42-5.43,1.17-8-2-10.38-4.57l0-.05S224.94,27.58,227.19,27.83Z"/><path class="cls-1" d="M227.36,43.06c2.06,2.07,3.25,2.82,2.56,5.25a14.89,14.89,0,0,1-2.63,4.4A23.9,23.9,0,0,1,221,58.43a17.51,17.51,0,0,0,.09-3.18,43.11,43.11,0,0,1,.75-11.67,3.82,3.82,0,0,0,.06-1.49l.49-.09a5.19,5.19,0,0,1,3.26,0A5,5,0,0,1,227.36,43.06Z"/><path class="cls-1" d="M227.69,52.75c.75,5,7.37,6.38,11.62,5.71.5,2-.49,6.91-2.87,10.29s-9,5-13.25,1.3A6.39,6.39,0,0,1,222,68.64a10.42,10.42,0,0,1-1.31-5.71c0-1.54.18-3.08.3-4.5a23.9,23.9,0,0,0,6.32-5.72Z"/><path class="cls-1" d="M209.68,29c0,.18,7-1.42,10,1.08l.45.39h0a16.67,16.67,0,0,1,1.17,1.2c2.39,2.57,4.95,5.74,10.38,4.57a4.78,4.78,0,0,1-.82,1.58c-3.08,3.94-5.22,4.17-5.22,4.17l0,0a5.19,5.19,0,0,0-3.26,0l-.49.09c-.33-1.81-2.21-2.76-4.31-3-1.79-.17-3.53-1.63-6.05-2.62h0A45.61,45.61,0,0,0,210,30.22c-.13-.39-.25-.8-.38-1.21Z"/><path class="cls-1" d="M210,30.22a45.61,45.61,0,0,1,1.48,6.28h0a12.87,12.87,0,0,0-4.07-.88,23.05,23.05,0,0,0-8.83,1.29c-.59-2.75-4.5-4.08-7.75-6.25s-4.41-7.09-5.5-11.34a6.37,6.37,0,0,0-.21-.66c.49.56,7.53,7.47,12.54,9.41,5.17,2,9.92,2.84,12.25,2.17Z"/><path class="cls-1" d="M186.64,7.23h0c1.79,3.07,4.06,6.55,7.12,6.57a18.25,18.25,0,0,1,3.76.41,12.76,12.76,0,0,1,8,5.29,28.77,28.77,0,0,1,2.7,5.42c.52,1.34,1,2.74,1.44,4.09.13.41.25.82.38,1.21l-.1,0c-2.33.67-7.08-.17-12.25-2.17-5-1.94-12.05-8.85-12.54-9.41h0a5.78,5.78,0,0,0-1.64-2.24c0-.31-.73-6.18.19-9.57a3.26,3.26,0,0,1,1.42-2.22C185.59,5.38,186.1,6.28,186.64,7.23Z"/><path class="cls-1" d="M172,47.75c-1.82-.5-2.69-3-2.69-3a7.17,7.17,0,0,1-1.35-2.93h-.57s-.24-.06-.58-1.11a35.28,35.28,0,0,1-1.19-6.55c-.05-.4-.08-.79-.1-1.16a14.48,14.48,0,0,1,2.4-8.8,27,27,0,0,1,2.27-3c.55-.66,1.1-1.28,1.62-1.89a17,17,0,0,1,5.92-4.7,3.8,3.8,0,0,1,1.08-.3l.5.1a9.9,9.9,0,0,1,4.24,2,5.78,5.78,0,0,1,1.64,2.24h0a6.37,6.37,0,0,1,.21.66c1.09,4.25,2.25,9.17,5.5,11.34s7.16,3.5,7.75,6.25a23.05,23.05,0,0,1,8.83-1.29,12.87,12.87,0,0,1,4.07.88c2.52,1,4.26,2.45,6.05,2.62,2.1.2,4,1.15,4.31,3a3.82,3.82,0,0,1-.06,1.49,43.11,43.11,0,0,0-.75,11.67,17.51,17.51,0,0,1-.09,3.18c-.12,1.42-.29,3-.3,4.5h-.56c-2.84-1-6.36.69-6.36.69a4.71,4.71,0,0,0-1.81-1.43h0c.73-5.25-5.06-3.43-5.38-3.33h0c-2.48,1.64-5.57,3.68-7.88,5.24-4.19,2.84-15.43,1.16-15.43,1.16-.29.31-.58.61-.89.92a7,7,0,0,0-2.26-.71c-.71-.66-1.31-1.16-1.85-1.58a19.56,19.56,0,0,1,.57-4.44h0c-1.86-1.09-2.7-3.17-3-5.37a5.32,5.32,0,0,1-2.37-1.71A7.59,7.59,0,0,1,172,47.75Z"/><path class="cls-2" d="M35.05,200.13s-.76,17.48-2.68,26.87c-7.71,6.53-24.11,8.72-28.95,3.13s-.75-10.25,4.5-13.25S28.43,206.76,35.05,200.13Z"/><path class="cls-2" d="M51.82,267.68c-2.1-.43-4.29-1.08-5.27-2.05-1.25-1.23-6.22-5.63-10.67-9.5h0c-2-1.74-3.91-3.37-5.31-4.55-.85-.71-1.52-1.27-1.93-1.58a5.68,5.68,0,0,1-.48-8,5.48,5.48,0,0,1,.6-.58,5.68,5.68,0,0,1,3.09-1.31c6.58-1.2,13.49,5.28,13.49,5.28-.41.11-.84.24-1.28.39-1.5,1.63,1,6.88,5.37,12.06s4.68,5.57,7.28,10.57c0,0-.49,0-1.25-.13C54.52,268.14,53.19,268,51.82,267.68Z"/><path class="cls-2" d="M46.55,265.63c1,1,3.17,1.62,5.27,2.05a148.75,148.75,0,0,1-18.52.74l-1.46,0c-8.67-.5-15.67-1-15.92-1.94s3.38-9.68,10.13-10.31c6.52-.61,9.61,0,9.82,0h0C40.33,260,45.3,264.4,46.55,265.63Z"/><path class="cls-2" d="M56.7,291.64a4.83,4.83,0,0,0,1.85.87,66.21,66.21,0,0,1-2.38,9.74c-2,6.63-12.74,17.13-16.87,15.13s-3.26-8.25-2.38-14.09,1-17.54,0-21.54S33.3,269.63,33.3,268.5v-.08a148.75,148.75,0,0,0,18.52-.74c1.37.28,2.7.46,3.63.57,0,0,2,10,1.25,16.26C55.25,287.1,54.84,290,56.7,291.64Z"/><path class="cls-2" d="M76.93,264.61s-3,7.75-4.64,13.24a40.45,40.45,0,0,0-8.57,1c-1.52-.75-4.46-5.54-7-10.46s-2.91-5.39-7.28-10.57-6.87-10.43-5.37-12.06c.44-.15.87-.28,1.28-.39,4-1.09,6.91-.62,9,.41a9.56,9.56,0,0,1,4.57,5.09,25.74,25.74,0,0,0,.24,9.27l1.07-.25s-.62,5.38-.37,6.56l1.62-.81s1,4.75,1.75,5.75c1.25-4.75,3.25-7,3.25-9.88.6,1.06,1.4,1.28,2,.67,0,0,5.88,0,8.94,1.87l.23.53A.5.5,0,0,0,76.93,264.61Z"/><path class="cls-2" d="M63.72,278.84a40.45,40.45,0,0,1,8.57-1c-.27.85-.5,1.64-.69,2.34-.76,2.84-2.73,8.4-4.6,13.25a37.08,37.08,0,0,1-8.45-.93,4.83,4.83,0,0,1-1.85-.87c-1.86-1.66-1.45-4.54,0-7.13a12.78,12.78,0,0,1,4.35-4.63A10.33,10.33,0,0,1,63.72,278.84Z"/><path class="cls-2" d="M83.87,276.34c1.43,2.86,3.11,6.6,4.79,10.24-.38.54-3.48,4.86-6,5.8a30.59,30.59,0,0,1-5.8.79c-1.32.1-2.78.18-4.29.23,1-4.13,2.06-8.75,2.49-11.4.19-1.13.53-2.6,1-4.18,1.1,0,2,0,2.75.06C82.42,278,83.87,276.34,83.87,276.34Z"/><path class="cls-2" d="M144.5,179.19a36.35,36.35,0,0,0-6.67-10.61c-1.29-1.56-3.89-5.56-6.7-10,.73.2,9.31,2.6,12.34,2.68s8.53-.9,9.3-1.79c2.61,2.71,8.28,7.29,12.36,8.62-.91,1.5-4.25,2.5-4.41,3.09s1.66,3.08,6.58.91,7.33-3.41,7.83-4.25.17-1.5-1.33-1.5-4.42.42-5.17-.5c-.33-1.41,3.5-2.58,3.67-3.58s-2.33-1.33-2.25-3-1.42-2.42-3.5-2.5-6-.5-6-.5c10.26-3.38,35.24-23.67,48.41-36.33,8.24-7.92,15.69-15,24.19-24,8.71-9.17,13-13.79,16.81-18.71,17.23-22.47,15.63-36.31,22.34-37.17,11.94-1.54,36.54,39.82,24.17,66.2-1.94,4.14-10.29,10.93-26.92,24.35-18.92,15.27-24.32,18.81-40.5,32.25-15.2,12.64-21.18,18.44-26.5,24.2-5.67,6.13-7.9,9.29-14.67,17-9.61,10.94-18,19.26-23.58,24.58.48-1.95,1-3.94,1.4-6.16,1.25-6.5-3.13-12.75-7-17.25s-11.45-18-13.45-24.08Q144.91,180.17,144.5,179.19Z"/><path class="cls-2" d="M32.37,227c1.92-9.39,2.68-26.87,2.68-26.87,6.62-6.63,13.87-19,20.37-25.75a21.87,21.87,0,0,0,2.13-2.59l-.22-.16c-.79-3.75-.5-7.12,0-12S54,148.37,54.83,139.5,53,119.42,41,93.25,18.13,58.92,18.13,58.92l-.73-.84C18.8,56.34,31.21,41.41,52,41.91,74.14,42.44,86,60.13,87,61.66l0,1s5,12.62,6.75,19.12S99.55,94,102.05,99s3.62,12.1,13.2,24.31l-.37.29a2.5,2.5,0,0,1,.45.48h0l1.5,3.51c1.83,5.38,4.37,15,7.7,20.33l3.11,5q.18.27.33.54l.32.52c.11.17.21.33.3.49l1.67,2.71h0l.31.49.55.87h0l0,0c2.81,4.45,5.41,8.45,6.7,10a36.35,36.35,0,0,1,6.67,10.61q.41,1,.75,2c2,6.08,9.58,19.58,13.45,24.08s8.25,10.75,7,17.25c-.42,2.22-.92,4.21-1.4,6.16a51.6,51.6,0,0,0-1.85,12.22c-.13,7.38-.06,19.25-1.62,21.75s-7.13,10.12-14.69,10h-.85c0,4.87,0,9.36-1,11.62-1.36,3.23-9.51,7.57-15,7.38a14.24,14.24,0,0,1-1,6.12c-1.61,3.61-7.09,7-13.43,4.9a7.53,7.53,0,0,1-.07,2.23c-.87,3.88-8.38,9.62-17,6.75s-15.88-8.75-20.88-18.25l0-.21a30.59,30.59,0,0,0,5.8-.79c2.48-.94,5.58-5.26,6-5.8-1.68-3.64-3.36-7.38-4.79-10.24a34.31,34.31,0,0,0-2.07-3.71,36.7,36.7,0,0,1-2.73-4.84c.17-.55.28-.87.28-.87a7.61,7.61,0,0,0-1.72-2.35L77.4,264c-1-2.31-2-4.9-3.15-7.91l-.78-2c-2.31-5.75-6.53-10.16-10.3-13.29-1.47-1.22-2.88-2.25-4.07-3.08a44.94,44.94,0,0,0-4.8,7.95v0c-2-1-4.95-1.5-9-.41,0,0-6.91-6.48-13.49-5.28a5.68,5.68,0,0,0-3.09,1.31l-.12-.14s1-3.63,3.29-12.25C32.08,228.39,32.23,227.72,32.37,227Z"/><path d="M209.75,83.2c-2.25,1.41-6,.41-9.16-1.34s-3.42-.74-4.67,6.09-4.25,7.16-4.17,5.66c.84-1.91-.08-7.83-.33-11.41-1.58-1-2.67-4.26-2.92-6.09-.18-1.32-.58-3.16-1.37-3.8l.36-.9a14.11,14.11,0,0,0,7.83.85l.12,0,.34,0s.73.85,2.06,2.76S206.25,81,209.75,83.2Z"/><path d="M182.35,66.16c2.53,1.18,5,3.53,6.82,5s5,1.28,6.15,1.15a14.11,14.11,0,0,1-7.83-.85l-.36.9a1,1,0,0,0-1.09-.12c.21.75-1.7,7.26-3.28,7.59-1-.81-1.59-7.91-3.61-7.81s-3.82,7.64-3.36,9.64,4.38,5.34,3.8,6.5c-1.25.09-4.18-1.25-6.05-4-1-1.49-1.64-4.58-2-7.51l4.24-7.85c-.75,1.22-2.29,3.93-4.28,7.52a32.78,32.78,0,0,1-.19-5.66c-1.67-.83-11.08,12.68-12,14.59s-4.59,7.66-5.92,7.83-.58-2-.25-3.92,3.92-9.57,4.42-11.41,1.5-3.25,1.33-4.75-2.16-1.08-6.08-2.87-5.42-6.45-4.92-7.45,1.67-1.62,3.42,0,6.59,2.95,8,2.12,3-1,5.06-1.46,3.19-1.71,2.35-3.29c-4.34-1.92-9.91-8.25-10.5-9.42A52,52,0,0,0,150,42.5a16.88,16.88,0,0,1-3.81-6.9c1.17-1.15,4.5,1.4,7.47,5.68a79.39,79.39,0,0,0,8,9.42c2.29,2.41,2.63,1.25,3.56.46.28.24.57.47.87.68l.06,0A6.46,6.46,0,0,0,169,53.31l.14,0c.52.09,1.42,2.93,4,6.09,2,2.49,3.08,2.86,5.07,4.42.54.42,1.14.92,1.85,1.58A7,7,0,0,1,182.35,66.16Z"/><path d="M175.81,68.75l-4.24,7.85c0-.11,0-.22,0-.33C173.52,72.68,175.06,70,175.81,68.75Z"/><path class="cls-3" d="M171.53,76.27c0,.11,0,.22,0,.33l-24.09,44.57C147.46,120.74,163.31,91.11,171.53,76.27Z"/><path d="M147.47,121.17h0c.46,1,.82,2.21.82,2.21a13.24,13.24,0,0,0,4.62-3.13c1.5-1.87,5.38-4.87,6.88-5.12l.5,1.37a5.38,5.38,0,0,0,4.5-1.37c2.31-1.94,3.44-3.57,4.25-3.69a1.62,1.62,0,0,0,2.23.52,1.39,1.39,0,0,0,.27-.21c.37-.56,3.56-5.94,7.94-5.44-2.69,1.57-4.25,4.88-3.19,5.25s5.62-3.25,6.19-4.75c1.06,3.88-.69,13.5-6.38,18.94.69,3.94-.12,7.44-3.25,7.88.63,4.31-1.62,6.31-4.44,5.37.13,4.06-4.75,11.65-17.85,17.82l-20.31.37-1.7-2.71c-.09-.16-.19-.32-.3-.49l-.32-.52q-.15-.27-.33-.54a109.62,109.62,0,0,1-5.38-9.56c-.94-2.47-5.35-15.6-5.35-15.6l-.08-.18a17.21,17.21,0,0,0-1.46-3.5c.77.3,12.17,4.73,15.2,13.79,1.26,1.5,3.39.25,3.39-1.75s.87-9.25,5.37-10.75c1.12.37,1,2.62,1,2.62s4.62-6.37,5.5-8.12C146.27,119,146.94,120,147.47,121.17Z"/><path d="M169,53.31a6.46,6.46,0,0,1-2.93-1.42A11,11,0,0,0,169,53.31Z"/><path d="M152.77,159.46c-.77.89-6.13,1.87-9.3,1.79s-11.61-2.48-12.34-2.68v0l29.42-2.3h0s3.92.42,6,.5,3.58.83,3.5,2.5,2.42,2,2.25,3-4,2.17-3.67,3.58c.75.92,3.67.5,5.17.5s1.83.66,1.33,1.5-2.91,2.08-7.83,4.25-6.74-.32-6.58-.91,3.5-1.59,4.41-3.09C161.05,166.75,155.38,162.17,152.77,159.46Z"/><path d="M131.12,158.55v0l0,0Z"/><path d="M130.26,157.19h0l-1.67-2.71Z"/><path d="M128.26,154l-.32-.52Z"/><path d="M116.8,127.59l-1.5-3.51h0A17.21,17.21,0,0,1,116.8,127.59Z"/><path d="M79.35,266.92s-.11.32-.28.87c-.49-1-1-2.08-1.44-3.22A7.61,7.61,0,0,1,79.35,266.92Z"/><path d="M72.29,277.85c1.69-5.49,4.64-13.24,4.64-13.24a.5.5,0,0,1,.7,0c.48,1.14,1,2.21,1.44,3.22-.61,1.84-2,6.25-3,10C74.93,277.8,73.64,277.8,72.29,277.85Z"/><path d="M72.29,277.85c1.35-.05,2.64-.05,3.76,0-.42,1.58-.76,3.05-1,4.18-.43,2.65-1.44,7.27-2.49,11.4-1.84.07-3.76.08-5.61,0,1.87-4.85,3.84-10.41,4.6-13.25C71.79,279.49,72,278.7,72.29,277.85Z"/><path d="M63.17,240.88l11.08,15.25c-1.43,3.38-3.83,2.62-4.7,2.5-.06,1.83-.51,3-1.09,3.54s-1.44.39-2-.67c0,2.88-2,5.13-3.25,9.88-.75-1-1.75-5.75-1.75-5.75l-1.62.81c-.25-1.18.37-6.56.37-6.56l-1.07.25a25.74,25.74,0,0,1-.24-9.27A20.53,20.53,0,0,1,63.17,240.88Z"/><path d="M67,293.44c1.85,0,3.77,0,5.61,0a74.56,74.56,0,0,1-2.18,7.37c-1.42,3.59-5.92,8.76-10,11.09s-5.41.5-5.08,0,6.49-7.58,7.91-9.75A73.56,73.56,0,0,0,67,293.44Z"/><path class="cls-4" d="M18.13,58.92S29,67.08,41,93.25s14.7,37.38,13.83,46.25,3,15.25,2.5,20.13-.79,8.25,0,12"/><path class="cls-4" d="M64.55,141.63s.12,6.5,0,8.75"/><path class="cls-4" d="M63.8,156.25s-1.46,8.82-6.25,15.54a21.87,21.87,0,0,1-2.13,2.59c-6.5,6.75-13.75,19.12-20.37,25.75S13.17,213.88,7.92,216.88s-9.37,7.62-4.5,13.25,21.24,3.4,28.95-3.13l.15-.12"/><path class="cls-4" d="M35.05,200.13s-.76,17.48-2.68,26.87c-.14.72-.29,1.39-.45,2-2.25,8.62-3.29,12.25-3.29,12.25"/><path class="cls-4" d="M87.05,62.63s5,12.62,6.75,19.12S99.55,94,102.05,99s3.62,12.1,13.2,24.31l0,.07"/><path class="cls-4" d="M131.13,158.57c2.81,4.45,5.41,8.45,6.7,10a36.35,36.35,0,0,1,6.67,10.61q.41,1,.75,2c2,6.08,9.58,19.58,13.45,24.08s8.25,10.75,7,17.25c-.42,2.22-.92,4.21-1.4,6.16a51.6,51.6,0,0,0-1.85,12.22c-.13,7.38-.06,19.25-1.62,21.75s-7.13,10.12-14.69,10"/><path class="cls-4" d="M130.26,157.19l.31.49.55.87"/><path class="cls-4" d="M116.8,127.59c1.83,5.38,4.37,15,7.7,20.33l3.11,5"/><path class="cls-4" d="M102,120.75s10.11.59,12.88,2.85a2.5,2.5,0,0,1,.45.48h0"/><path class="cls-4" d="M140.13,205.83a104.33,104.33,0,0,0,8.34,11.59"/><path class="cls-4" d="M154.13,220.42s-2.66,5.5-2.75,7.41"/><path class="cls-4" d="M146.55,241.25s-1.13,17.88-1.25,24.88c0,2.14,0,4.35,0,6.5,0,4.87,0,9.36-1,11.62-1.36,3.23-9.51,7.57-15,7.38h-.12"/><path class="cls-4" d="M128.3,248.38s-2.25,2.62-2.13,10a212,212,0,0,0,2.13,23.87,77.91,77.91,0,0,1,1,9.38,14.24,14.24,0,0,1-1,6.12c-1.61,3.61-7.09,7-13.43,4.9l-.07,0"/><path class="cls-4" d="M106.92,260.13s-.5,11.87,2,20.87c2.12,7.64,5.5,16.71,6,21.65a7.53,7.53,0,0,1-.07,2.23c-.87,3.88-8.38,9.62-17,6.75s-15.88-8.75-20.88-18.25"/><path class="cls-4" d="M79.07,267.79a36.7,36.7,0,0,0,2.73,4.84,34.31,34.31,0,0,1,2.07,3.71c1.43,2.86,3.11,6.6,4.79,10.24.82,1.75,1.63,3.47,2.41,5.06a50.17,50.17,0,0,0,3.56,6.28"/><path class="cls-4" d="M47.8,227.83s6.33,6.59,10.5,9.42l.8.55c1.19.83,2.6,1.86,4.07,3.08,3.77,3.13,8,7.54,10.3,13.29l.78,2c1.2,3,2.2,5.6,3.15,7.91l.23.53"/><path class="cls-4" d="M110.92,150.38s3.25-3,5.75-2.75"/><path class="cls-4" d="M122.05,221.92s3,9.33,5,12.66"/><path class="cls-4" d="M126.47,242.33a20.55,20.55,0,0,0-3.5,6.84"/><path class="cls-4" d="M115.63,237.08a28.19,28.19,0,0,0-.71,6"/><path class="cls-4" d="M98.13,239.33s4.09,6.5,5.84,9"/><path class="cls-4" d="M104,255.5a34.36,34.36,0,0,0-3.42,4.63"/><path class="cls-4" d="M160.55,156.25c10.26-3.38,35.24-23.67,48.41-36.33,8.24-7.92,15.69-15,24.19-24,8.71-9.17,13-13.79,16.81-18.71,17.23-22.47,15.63-36.31,22.34-37.17,11.94-1.54,36.54,39.82,24.17,66.2-1.94,4.14-10.29,10.93-26.92,24.35-18.92,15.27-24.32,18.81-40.5,32.25-15.2,12.64-21.18,18.44-26.5,24.2-5.67,6.13-7.9,9.29-14.67,17-9.61,10.94-18,19.26-23.58,24.58l0,0"/><path class="cls-4" d="M130.54,157.68h0c.61,0,9.88-.33,20-.85,3.33-.17,6.74-.37,10-.58"/><path class="cls-4" d="M144.5,179.19s10.8-.8,16.55,0"/><path class="cls-4" d="M171.67,180.75s5.63,11.13,8.75,13.88"/><path class="cls-4" d="M59.1,237.8a44.94,44.94,0,0,0-4.8,7.95"/><path class="cls-4" d="M58.86,250.86a9.56,9.56,0,0,0-4.57-5.09c-2-1-4.95-1.5-9-.41-.41.11-.84.24-1.28.39-1.5,1.63,1,6.88,5.37,12.06s4.68,5.57,7.28,10.57,5.5,9.71,7,10.46l.08,0"/><path class="cls-4" d="M72.61,293.4c1.51,0,3-.13,4.29-.23a30.59,30.59,0,0,0,5.8-.79c2.48-.94,5.58-5.26,6-5.8l0-.05"/><path class="cls-4" d="M72.29,277.85a40.45,40.45,0,0,0-8.57,1,10.33,10.33,0,0,0-2.67,1,12.78,12.78,0,0,0-4.35,4.63c-1.45,2.59-1.86,5.47,0,7.13a4.83,4.83,0,0,0,1.85.87,37.08,37.08,0,0,0,8.45.93"/><path class="cls-4" d="M83.87,276.34s-1.45,1.66-5.07,1.54c-.7,0-1.65-.05-2.75-.06"/><path class="cls-4" d="M91.07,291.64A11,11,0,0,0,86.42,297"/><path class="cls-4" d="M35.87,256.13c-2-1.74-3.91-3.37-5.31-4.55-.85-.71-1.52-1.27-1.93-1.58a5.68,5.68,0,0,1-.48-8,5.48,5.48,0,0,1,.6-.58,5.68,5.68,0,0,1,3.09-1.31c6.58-1.2,13.49,5.28,13.49,5.28"/><path class="cls-4" d="M56.7,268.38s-.49,0-1.25-.13c-.93-.11-2.26-.29-3.63-.57-2.1-.43-4.29-1.08-5.27-2.05-1.25-1.23-6.22-5.63-10.67-9.5"/><path class="cls-4" d="M51.84,267.68h0a148.75,148.75,0,0,1-18.52.74l-1.46,0c-8.67-.5-15.67-1-15.92-1.94s3.38-9.68,10.13-10.31c6.52-.61,9.61,0,9.82,0h0"/><path class="cls-4" d="M30.56,251.58v3.92"/><path class="cls-4" d="M33.3,268.5c0,1.13,2.62,9.25,3.62,13.25s.88,15.7,0,21.54-1.75,12.09,2.38,14.09,14.87-8.5,16.87-15.13a66.21,66.21,0,0,0,2.38-9.74h0"/><path class="cls-4" d="M55.45,268.25s2,10,1.25,16.26"/><path class="cls-4" d="M68.46,262.17s5.88,0,8.94,1.87"/><path class="cls-5" d="M147.48,121.17c0-.43,15.83-30.06,24.05-44.9"/><path class="cls-4" d="M166,51.84c-1.23-1-2.6-2.35-4.4-4.09-9.42-9.62-9.2-16.62-9.2-16.62l1.37-1.25c1.38-1.25,1-4.25,1.38-11.75a31.94,31.94,0,0,1,4-13.5s4.12,6.25,3.81,10.75"/><path class="cls-4" d="M173.56,52.25l-.18.09a6.93,6.93,0,0,1-4.35,1"/><path class="cls-4" d="M165.72,33.08l-.24-.07c-5.34-1.57-3.45-6.19-2.48-13.09q.09-.63.21-1.29c.19-1,.42-2,.7-3,.16-.6.33-1.21.52-1.81a95,95,0,0,1,4-10.68s6.38,4.53,9.25,11.5l.08.2"/><path class="cls-4" d="M163.22,18.63a14.18,14.18,0,0,1,4.66,5.58l.06.12"/><path class="cls-4" d="M164.42,13.8h0a20.55,20.55,0,0,1,5.72,7.41l.12.26"/><path class="cls-4" d="M185.15,18.67a6.37,6.37,0,0,1,.21.66c1.09,4.25,2.25,9.17,5.5,11.34s7.16,3.5,7.75,6.25-3,7.66-8.17,12"/><path class="cls-4" d="M167.35,41.83s-.24-.06-.58-1.11a35.28,35.28,0,0,1-1.19-6.55c-.05-.4-.08-.79-.1-1.16a14.48,14.48,0,0,1,2.4-8.8,27,27,0,0,1,2.27-3c.55-.66,1.1-1.28,1.62-1.89a17,17,0,0,1,5.92-4.7,3.8,3.8,0,0,1,1.08-.3l.5.1a9.9,9.9,0,0,1,4.24,2,5.78,5.78,0,0,1,1.64,2.24"/><path class="cls-4" d="M168.52,36.25a10,10,0,0,0-.6,5.57,7.17,7.17,0,0,0,1.35,2.93s.87,2.5,2.69,3"/><path class="cls-4" d="M172.12,33.08a90.89,90.89,0,0,1,0,11.67,20.56,20.56,0,0,0-.15,3,7.59,7.59,0,0,0,1.41,4.59,5.32,5.32,0,0,0,2.37,1.71l.06,0"/><path class="cls-4" d="M176.19,46.08a24.06,24.06,0,0,0-.44,8c.32,2.2,1.16,4.28,3,5.37"/><path class="cls-4" d="M159.36,34.92s5.53,2.76,7.41,5.8"/><path class="cls-4" d="M180.11,55.25a30.17,30.17,0,0,0-1.3,4.18,19.56,19.56,0,0,0-.57,4.44"/><path class="cls-4" d="M190.44,54.83s-1.83,4.63-7.2,10.41c-.29.31-.58.61-.89.92"/><path class="cls-4" d="M183.24,65.24s11.24,1.68,15.43-1.16c2.31-1.56,5.4-3.6,7.88-5.24,2-1.34,3.64-2.42,4.06-2.76"/><path class="cls-4" d="M195.44,72.24a13,13,0,0,0,3.92-1.49c7.41-4.26,10.3-6.47,12.58-8.57.49-.45.95-.89,1.42-1.35,2.67-2.59,2.83-6.75,2.83-6.75"/><path class="cls-4" d="M206.54,58.86h0c.32-.1,6.11-1.92,5.38,3.33h0a4.71,4.71,0,0,1,1.81,1.43,6,6,0,0,1,.94,5.14"/><path class="cls-4" d="M199.36,70.75s6.18,2.67,11.34,0a31.16,31.16,0,0,1,4-1.79,10.74,10.74,0,0,1,7.25-.32l.38.11"/><path class="cls-4" d="M213.75,63.61s3.52-1.69,6.36-.69"/><path class="cls-4" d="M198.61,36.92a23.05,23.05,0,0,1,8.83-1.29,12.87,12.87,0,0,1,4.07.88c2.52,1,4.26,2.45,6.05,2.62,2.1.2,4,1.15,4.31,3a3.82,3.82,0,0,1-.06,1.49,43.11,43.11,0,0,0-.75,11.67,17.51,17.51,0,0,1-.09,3.18c-.12,1.42-.29,3-.3,4.5A10.42,10.42,0,0,0,222,68.64a6.39,6.39,0,0,0,1.21,1.41c4.25,3.71,10.87,2.08,13.25-1.3s3.37-8.32,2.87-10.29c-4.25.67-10.87-.71-11.62-5.71"/><path class="cls-4" d="M222.36,42a5.19,5.19,0,0,1,3.26,0,5,5,0,0,1,1.74,1c2.06,2.07,3.25,2.82,2.56,5.25a14.89,14.89,0,0,1-2.63,4.4A23.9,23.9,0,0,1,221,58.43l-.05,0"/><path class="cls-4" d="M185.12,18.63l0,0h0c.49.56,7.53,7.47,12.54,9.41,5.17,2,9.92,2.84,12.25,2.17"/><path class="cls-4" d="M186.65,7.23c1.79,3.07,4.06,6.55,7.12,6.57a18.25,18.25,0,0,1,3.76.41,12.76,12.76,0,0,1,8,5.29,28.77,28.77,0,0,1,2.7,5.42c.52,1.34,1,2.74,1.44,4.09.13.41.25.82.38,1.21a45.61,45.61,0,0,1,1.48,6.28"/><path class="cls-4" d="M183.51,16.43h0c0-.31-.73-6.18.19-9.57a3.26,3.26,0,0,1,1.42-2.22c.47.75,1,1.65,1.52,2.6"/><path class="cls-4" d="M220.13,30.47l-.45-.39c-3-2.5-10-.9-10-1.08"/><path class="cls-4" d="M231.68,36.25c-5.43,1.17-8-2-10.38-4.57a16.67,16.67,0,0,0-1.17-1.2"/><path class="cls-4" d="M221.35,31.63s3.59-4.05,5.84-3.8c2,.22,5.64,4.67,4.49,8.42a4.78,4.78,0,0,1-.82,1.58c-3.08,3.94-5.22,4.17-5.22,4.17"/><path class="cls-4" d="M186.64,7.23h0c.33-.1,6.45-1.9,10.74.26l.14.07"/><path class="cls-4" d="M197.53,14.22h0c-.08-.29-1.37-5-.14-6.72A1.39,1.39,0,0,1,198,7c2.25-.91,4.63,2.89,5.88,4.64a21.09,21.09,0,0,0,3.93,3.68"/><path class="cls-4" d="M205.52,19.5s.24-3.2,2.34-4.06a3.27,3.27,0,0,1,1.8-.13,10.55,10.55,0,0,1,6.84,4.51c.06.08.11.16.16.24"/><path class="cls-4" d="M208.22,24.92s4.88-5.58,8.28-5.1a2.3,2.3,0,0,1,.81.24c3.37,1.68,3.32,7.19,2.82,10.41h0"/><path class="cls-4" d="M179.27,14.43s-1.33-9.1-.91-13.18c2.75,2.83,5.34,5.6,5.34,5.6"/><path class="cls-4" d="M17.4,58.08C18.8,56.34,31.21,41.41,52,41.91,74.14,42.44,86,60.13,87,61.66"/></g></g></svg>