<?xml version="1.0" standalone="no"?><!DOCTYPE svg PUBLIC "-//W3C//DTD SVG 1.1//EN" "http://www.w3.org/Graphics/SVG/1.1/DTD/svg11.dtd"><svg class="icon" width="200px" height="200.00px" viewBox="0 0 1024 1024" version="1.1" xmlns="http://www.w3.org/2000/svg"><path fill="#333333" d="M535.04 996.352C246.784 1010.176 9.728 771.584 25.6 482.816c14.336-261.12 229.888-461.824 491.52-458.752 47.104 0.512 93.696 7.68 138.24 21.504 14.336 4.608 22.016 19.456 16.896 33.28-4.608 12.8-18.944 19.456-31.744 15.36-41.472-12.8-84.992-19.456-129.024-19.456-247.808 0-448 208.384-434.688 458.752 11.776 220.672 190.464 399.36 411.136 411.136 250.88 13.312 458.752-186.88 458.752-434.688 0-41.984-6.144-83.456-17.92-123.392-4.096-13.312 3.072-27.136 15.872-31.744 13.824-5.12 29.184 3.072 33.28 16.896 13.312 45.056 19.968 91.648 19.968 138.752-0.512 258.56-205.312 473.6-462.848 485.888z"  /><path fill="#333333" d="M773.632 798.72h-512c-14.336 0-25.6-11.264-25.6-25.6s11.264-25.6 25.6-25.6h512c14.336 0 25.6 11.264 25.6 25.6s-11.776 25.6-25.6 25.6zM575.488 600.064c-43.52 0-81.92-13.312-110.08-41.472-80.384-80.384-40.448-245.76 90.624-376.32 52.736-52.736 132.608-86.528 230.912-96.768 72.704-7.68 130.048-0.512 132.608 0l17.408 2.048 2.56 17.408c0.512 5.12 15.872 124.416-22.528 238.592-3.584 10.752-5.12 14.336-125.44 64 54.784 26.624 55.296 29.184 57.344 40.448l2.048 11.776-8.704 8.704c-85.504 84.992-185.344 131.584-266.752 131.584zM855.04 127.488c-18.432 0-40.448 1.024-64 3.584-60.928 6.656-144.896 26.624-202.24 83.456C479.744 323.584 438.272 465.92 498.176 525.824c55.808 55.808 183.808 23.552 288.768-69.12-17.408-8.704-40.96-19.968-62.976-30.208l-47.616-22.528 48.64-19.968c61.44-25.088 129.536-53.248 150.016-63.488 24.064-76.8 22.016-156.672 19.968-191.488-9.728-0.512-23.552-1.536-39.936-1.536z"  /><path fill="#333333" d="M392.704 774.656c-14.848 1.024-27.648-10.752-27.136-26.112 2.56-97.28 50.176-192.512 139.264-277.504 48.128-45.568 96.768-77.312 124.928-94.208 12.8-7.68 29.184-2.56 35.84 10.752 6.144 11.776 2.048 26.624-9.728 33.28-60.928 36.352-235.008 155.648-239.104 328.192-0.512 13.824-10.752 24.576-24.064 25.6z"  /></svg>