<?xml version="1.0" standalone="no"?><!DOCTYPE svg PUBLIC "-//W3C//DTD SVG 1.1//EN" "http://www.w3.org/Graphics/SVG/1.1/DTD/svg11.dtd"><svg t="1606226559839" class="icon" viewBox="0 0 1024 1024" version="1.1" xmlns="http://www.w3.org/2000/svg" p-id="1746" xmlns:xlink="http://www.w3.org/1999/xlink" width="200" height="200"><defs><style type="text/css"></style></defs><path d="M265.84039 240.964683c-55.845463 0-103.498927 19.980488-142.660683 59.641756-39.161756 39.761171-58.742634 87.614439-58.742634 143.659707 0 51.949268 16.983415 96.805463 50.950244 134.768391 33.966829 37.863024 76.225561 59.841561 126.776195 65.635902v39.161756h-47.653463v53.048195h47.653463v46.154927h51.649561v-46.154927h49.052098v-53.048195h-49.052098v-39.661268c49.851317-6.993171 91.310829-29.171512 124.178732-66.834732 32.867902-37.463415 49.351805-81.92 49.351805-133.070049 0-56.045268-19.580878-103.998439-58.742634-143.659707-39.161756-39.861073-86.915122-59.641756-142.760586-59.641756z m102.00039 304.003122C339.668293 572.64078 305.601561 586.427317 265.740488 586.427317c-39.861073 0-73.728-13.786537-101.400976-41.459512C136.766439 517.294829 122.88 483.527805 122.88 443.666732c0-40.360585 13.786537-74.427317 41.459512-102.300098 27.672976-27.87278 61.539902-41.75922 101.400976-41.759219 40.16078 0 74.227512 13.886439 102.200195 41.659317 28.072585 27.772878 42.058927 62.039415 42.058927 102.599805 0 39.761171-13.986341 73.628098-42.15883 101.101268zM866.254049 285.820878l-26.873756 28.372293 43.457561 3.896195-78.323513 75.226536c-16.583805-9.390829-33.467317-16.284098-50.550634-21.079414-17.083317-4.49561-35.365463-6.793366-54.746536-6.793366-58.043317 0-107.29522 20.180293-147.755708 60.740683-40.460488 40.56039-60.64078 89.812293-60.64078 147.955512 0 58.243122 20.180293 107.495024 60.64078 147.955512 40.56039 40.56039 89.912195 60.740683 147.955513 60.740683 58.14322 0 107.694829-20.280195 148.654829-60.740683 40.760195-40.56039 61.340098-89.812293 61.340097-147.955512 0-26.574049-4.795317-51.749463-14.286048-75.726049-9.590634-23.876683-22.577951-45.155902-39.461464-63.837658l68.932683-74.52722 5.294829 44.556488 29.671025-27.972683v-90.811317h-93.308878z m-60.440976 396.113171c-29.07161 29.171512-64.536976 43.757268-106.595902 43.757268-41.259707 0-76.425366-14.585756-105.297171-43.957073-28.971707-29.371317-43.357659-64.536976-43.357659-105.896585 0-41.35961 14.485854-76.325463 43.357659-105.197269 28.871805-28.871805 63.937561-43.257756 105.297171-43.257756 41.859122 0 77.324488 14.385951 106.396097 43.257756C834.684878 499.512195 849.170732 534.478049 849.170732 575.837659c0 41.559415-14.485854 76.924878-43.357659 106.09639z" p-id="1747"></path></svg>