<?xml version="1.0" standalone="no"?><!DOCTYPE svg PUBLIC "-//W3C//DTD SVG 1.1//EN" "http://www.w3.org/Graphics/SVG/1.1/DTD/svg11.dtd"><svg t="1624190387754" class="icon" viewBox="0 0 1024 1024" version="1.1" xmlns="http://www.w3.org/2000/svg" p-id="18707" xmlns:xlink="http://www.w3.org/1999/xlink" width="200" height="200"><defs><style type="text/css"></style></defs><path d="M372.903 484.863L912.028 143.958c14.937-9.445 34.703-4.993 44.148 9.944A32 32 0 0 1 961.13 171.005L961.13 852.814c0 17.673-14.327 32-32 32a32 32 0 0 1-17.102-4.954l-539.125-340.904c-14.938-9.446-19.39-29.212-9.944-44.149a32 32 0 0 1 9.944-9.944zM450.13 511.409l447 284.5 0-569-447 284.5z m187-235.5c-17.673 0-32-14.327-32-32l0-17-447 284.5 447 284.5 0-16c0-17.673 14.327-32 32-32 17.673 0 32 14.327 32 32V852.814c0 17.673-14.327 32-32 32a32 32 0 0 1-17.102-4.954l-539.125-340.904c-14.938-9.446-19.39-29.212-9.944-44.149a32 32 0 0 1 9.944-9.944L620.028 143.958c14.937-9.445 34.703-4.993 44.148 9.944A32 32 0 0 1 669.13 171.005l0 72.904c0 17.673-14.327 32-32 32z" p-id="18708"></path></svg>