<?xml version="1.0" encoding="utf-8"?>
<!-- Generator: Adobe Illustrator 24.0.0, SVG Export Plug-In . SVG Version: 6.00 Build 0)  -->
<svg version="1.1" id="图层_1"
	xmlns="http://www.w3.org/2000/svg"
	xmlns:xlink="http://www.w3.org/1999/xlink" x="0px" y="0px" viewBox="0 0 612 792" style="enable-background:new 0 0 612 792;" xml:space="preserve">
	<style type="text/css">
	.st0{fill:#FFF2E2;}
	.st1{fill:#7E7E7C;}
	.st2{fill:#939390;}
	.st3{fill:#8B8B88;}
	.st4{fill:#C3C3C0;}
	.st5{fill:#8C8C89;}
	.st6{fill:#9F9F9C;}
	.st7{fill:#6D6D6C;}
	.st8{fill:#B7B7B4;}
	.st9{fill:#666665;}
	.st10{fill:#CBCCC8;}
	.st11{fill:#7F7F7C;}
	.st12{fill:#C3C3BF;}
	.st13{fill:#A2A29F;}
	.st14{fill:#949491;}
	.st15{fill:#777775;}
	.st16{fill:#9A9A97;}
	.st17{fill:#6E6E6C;}
	.st18{fill:#A4A4A1;}
	.st19{fill:#A7A7A4;}
	.st20{fill:#7B7B79;}
	.st21{fill:#6B6B69;}
	.st22{fill:#727270;}
	.st23{fill:#838380;}
	.st24{fill:#6F6F6D;}
	.st25{fill:#C2C2BE;}
	.st26{fill:#AEAEAB;}
	.st27{fill:#FEFEFE;}
	</style>
	<g>
		<g>
			<path class="st0" d="M641.91,391.96c0,122.94-0.02,245.88,0.09,368.82c0,3.44-0.78,4.22-4.22,4.22
			c-242.52-0.09-485.04-0.09-727.56,0c-3.44,0-4.22-0.77-4.22-4.22c0.09-246.19,0.09-492.37,0-738.56c0-3.44,0.77-4.22,4.22-4.22
			c242.52,0.09,485.04,0.09,727.56,0c3.44,0,4.22,0.77,4.22,4.22C641.9,145.46,641.91,268.71,641.91,391.96z"/>
			<path class="st1" d="M430.55,316.65c0.37,1.93,0.25,3.61-1.79,4.7c-2.29,1.23-4.12,0.32-5.93-0.98
			c-5.02-3.63-10.26-6.55-16.73-6.71c-7.47-0.18-13.21,3.36-18.33,8.16c-6.87,6.42-12.37,13.99-16.76,22.25
			c-7.74,14.56-15.03,29.35-22.74,43.92c-1.54,2.91-0.81,3.89,1.87,4.95c5.68,2.24,11.24,4.77,16.89,7.07c1.5,0.61,3,1.38,4.84,0.74
			c2.8-0.97,5.38,0.17,7.93,1.29c2.44,1.07,3.89,2.83,2.87,5.38c-0.95,2.38-3.19,2.62-5.74,2.65c-11.28,0.16-20.66-5.59-30.6-9.54
			c-2.65-1.05-3.88-0.76-5.32,1.79c-4.96,8.76-10.05,17.46-15.41,25.98c-2.77,4.41-6.59,8.04-11,10.91
			c-7.46,4.85-15.19,4.43-21.94-1.14c0.01-3.37,2.58-3.35,4.5-2.68c12.73,4.48,19.55-3.58,25.56-12.32
			c7.51-10.92,14.22-22.38,19.94-34.38c0.66-1.38,1.29-2.76,1.8-4.2c8.33-16.12,16.02-32.57,25.06-48.32
			c5.61-9.78,12.87-18.23,22.18-24.63c8.73-6,18.15-6.78,27.67-1.8C423.24,311.79,427.32,313.56,430.55,316.65z"/>
			<path class="st2" d="M442.64,477.15c-2.81-1.64-4.82-3.9-5.66-7.11c1.13-7.42,2.53-14.69,7.13-21.01
			c5.25-7.2,11.78-10.26,20.55-7.51c7.91,3.27,13.08,9.78,18.65,15.82c0.82,0.89,1.6,1.82,2.4,2.73c2.45,0.71,3.96-0.92,5.65-2.21
			c5.57-4.26,10.12-9.68,15.73-13.89c1.23-0.93,2.27-2.52,4.18-1.32c2.08,2.51,1.5,4.66-0.75,6.76
			c-5.92,5.52-11.73,11.15-17.68,16.64c-1.67,1.54-2.12,2.84-1.24,5.12c3.51,9.15,3.84,18.75,3.41,28.41
			c-0.13,2.96-1.35,5.33-4.45,5.32c-3.33-0.01-4.58-2.46-4.56-5.62c0.05-7.17,0.21-14.34-1.88-21.33c-0.36-1.22-0.37-2.45-2.03-2.49
			c-1-1.83-2.41-1.44-3.92-0.77c-9.48,4.2-19.37,3.36-29.25,2.27C446.76,476.73,444.7,476.05,442.64,477.15z"/>
			<path class="st2" d="M168.86,210.04c8.07,1.17,15.51,3.3,18.58,12.13c1,2.89,1.03,5.62-2.32,6.79c-3.42,1.19-5.06-0.86-5.67-4
			c-0.31-1.61-1.76-2.41-2.5-3.71c-1.38-3.92-4.49-5.49-8.28-6.36c-12.21-2.79-24.32-1.47-36.39,0.84
			c-5.1,0.97-10.22,1.97-15.1,3.86c-3.46,1.34-6.81,2.91-9.27,5.75c-2.13,2.45-4.01,5.16-1.72,8.6
			c-1.99,13.87,3.01,26.39,7.65,38.93c3.9,10.53,9.27,20.56,10.49,31.97c0.56,5.31,0.94,10.58-1.25,15.66
			c-2.59,0.85-3.52,3.24-4.82,5.26c-3,4.62-6.1,9.17-10.06,13.03c-1.3,1.27-2.62,3.33-4.97,1.47c-0.16-0.47-0.18-0.94-0.07-1.42
			c3.58-4.53,7.71-8.64,10.34-13.9c5.75-11.51,3.86-22.87-0.73-34.11c-4.96-12.14-10.29-24.13-13.11-37.03
			c-1.41-6.47-2.2-13.04-1.41-19.55c1.13-9.26,7.73-14.3,15.76-17.43c12.18-4.74,24.91-7.11,37.99-7.15
			C157.6,209.66,163.25,209.14,168.86,210.04z"/>
			<path class="st3" d="M439.94,399.09c2.24,4.02,1.14,6.91-3.25,7.37c-12.26,1.3-19.43,8.98-25.06,19.01
			c-6.01,10.72-9.84,21.96-9.44,34.39c0.34,10.63,5.09,17.4,13.73,19.9c2.11,0.61,4.23,0.58,6.36,0.57
			c3.27-0.02,5.38,1.37,5.45,4.75c0.08,3.66-2.21,4.96-5.63,5.12c-9.92,0.47-17.09-4.22-22.76-11.85
			c-5.83-17.83-3.33-34.89,4.42-51.6c4.62-9.96,10.9-18.35,20.45-24.02C429.06,399.85,434.24,398.31,439.94,399.09z"/>
			<path class="st4" d="M504.2,543.46c-1.56-1.44-2.77-3.19-1.18-5.09c1.79-2.15,4.38-2.81,7.08-1.87c5.4,1.89,10.92,2.51,16.62,2.52
			c11.37,0.03,21.31-4.03,29.89-10.98c13.9-11.24,21.71-25.73,20.95-44.06c-0.24-5.64-1.43-11.14-3.5-16.43
			c-0.86-2.19-0.73-4.31,1.37-5.7c1.82-1.21,3.84-1.88,5.71,0.08c-1.75,3.08-2.02,6.1-0.73,9.57c8.62,23.3-1.85,46.5-19.64,60.07
			c-14.01,10.69-29.9,14.39-47.06,9.01C509.32,539.2,507.31,542.42,504.2,543.46z"/>
			<path class="st5" d="M504.2,543.46c2.52-4.2,5.59-5.28,10.67-3.77c30.97,9.24,61.77-14.92,66.56-43.3
			c1.55-9.2,0.5-17.91-2.86-26.42c-1.43-3.61-0.91-6.19,2.56-8.03c3.46,4.54,4.41,10.02,5.14,15.39
			c1.35,10.01,1.44,20.01-2.99,29.48c-3.86,5.11-6.2,11.14-10.4,16.11c-15.45,18.25-34.64,25.91-58.37,21.65
			c-2.25-0.4-4.73-2.1-6.69,0.69C506.28,545.3,505.29,544.28,504.2,543.46z"/>
			<path class="st6" d="M223.91,255.11c-4.23-3.83-4.84-8.18-2.36-13.02c3.87-7.54,9.59-13.75,14.42-20.59
			c1.76-2.49,3.23-5.19,5.1-7.59c2.74-3.51,2.56-6.27-1.53-8.43c1.25-1.96,1.42-3.86-1.09-4.79c-7.27-2.68-14.58-5.53-22.06-0.53
			c-1.89-3.15-0.86-6.31,2.66-6.42c9.77-0.32,19.46,0.41,27.86,6.31c1.83,1.29,3.64,2.82,3.65,5.43
			c-5.8,12.72-15.65,22.74-22.97,34.44c-1.44,2.31-2.42,4.38,0.83,5.95c0.79,4.53,4.61,4.51,7.77,4.63
			c6.98,0.27,13.99,0.02,20.98-0.02c3.83-0.02,5.86,1.4,4.46,5.57c-2.15-0.91-4.33-1.03-6.7-0.91c-8.09,0.41-16.22,1.04-24.25-0.61
			C228.31,254.05,226.15,254.7,223.91,255.11z"/>
			<path class="st7" d="M103.61,340.57c6.38-3,9.1-9.33,13.12-14.47c1.2-1.53,2-3.38,3.16-4.94c0.75-1.01,1.7-2.48,3.18-0.67
			c-4.71,16.12-15.12,27.26-30.71,32.85c-20.67,7.41-39.86,3.19-57.5-9.36c1.88-3.44,4.56-1.44,6.67-0.66
			c5.3,1.94,10.36,4.51,15.92,5.76c15.24,3.43,29.66,1.93,42.92-6.93C101.36,341.48,102.28,340.58,103.61,340.57z"/>
			<path class="st8" d="M168.86,210.04c-14.51-0.22-29-0.06-43.15,3.73c-5.28,1.42-10.58,2.77-15.41,5.58
			c-12.26,7.16-12.15,15.03-10.92,26.15c1.74,15.81,8.32,30.1,14.28,44.62c7.6,18.51,6.71,31.79-8.37,47.27
			c-0.63,0.65-1.17,1.4-1.76,2.1c-4.56,5.38-10.87,7.68-17.35,9.47c-11.38,3.15-22.6,2.65-33.43-2.31c-1.9-0.87-4.64-1.27-4.19-4.47
			c8.41,3.3,16.93,5.88,26.16,5.75c18.16-0.26,34.11-11.28,39.7-28.46c3.01-9.24,1.07-18.42-2.43-27.27
			c-4.93-12.47-10.47-24.72-13.41-37.9c-1.44-6.47-1.99-13-1.35-19.57c0.73-7.47,5.17-12.67,11.47-16.13
			c11.19-6.14,23.6-8.12,36.08-9.3c6.67-0.63,13.44-0.16,20.17-0.14C166.3,209.18,167.75,208.9,168.86,210.04z"/>
			<path class="st9" d="M106.17,233.92c-3.13,0.13-2.71-2.1-2.34-3.89c0.95-4.52,4.13-7.33,8.01-9.36
			c9.47-4.94,19.93-6.15,30.25-7.82c9.24-1.49,18.44-0.99,27.56,0.93c3.02,0.64,5.85,1.74,7.47,4.69c0.53,0.96,1.07,1.93-0.19,2.77
			c-11.95-5.36-24.43-4.07-36.81-2.58c-8.13,0.98-16.2,2.68-23.81,5.98C111.87,226.58,108.07,229.2,106.17,233.92z"/>
			<path class="st10" d="M336.91,387.42c3.54-0.43,4.39-3.63,5.66-6.03c7.44-14.1,14.35-28.49,22.08-42.42
			c6.53-11.77,14.48-22.72,26.37-29.69c5.79-3.39,12.26-6.2,19.45-3.71c-3.89,1.84-8.35,1.26-12.3,2.9
			c-10.78,4.48-18.11,12.82-24.54,22.07c-7.77,11.2-13.47,23.55-19.53,35.7c-3.07,6.15-6.48,12.12-9.4,18.35
			c-6.59,14.67-14.77,28.45-23.82,41.7c-3.03,4.43-6.94,8.26-12.41,9.68c-2.57,0.67-5.63,1.58-6.5-2.54
			c8.12,0.36,13.19-4.25,17.22-10.57c4.97-7.79,9.82-15.65,13.96-23.93c0.92-1.83,0.87-3.05-0.85-4.14c0.5-0.91,1.53-1.19,2.21-1.89
			C336.12,391.44,336.05,389.23,336.91,387.42z"/>
			<path class="st11" d="M266.21,354.29c-0.16,4.66-2.23,6.21-6.81,4.38c-11.19-4.47-22.39-8.95-33.35-13.95
			c-8.14-3.72-16.44-7.34-23.37-13.28c1.35-4.26,2.89-5.18,6.42-3.04c15.19,9.21,31.6,15.74,47.96,22.45
			C260.09,352.1,263.95,351.11,266.21,354.29z"/>
			<path class="st12" d="M439.94,399.09c-5,1.73-10.43,1.67-15.2,4.62c-11.55,7.13-17.99,17.91-22.61,30.12
			c-4.8,12.71-6.46,25.66-2.95,39.04c0.45,1.72,0.13,3.65,0.16,5.48c-5.64-6.29-6.39-14.31-6.09-21.92
			c0.58-14.7,5.04-28.6,13.69-40.59c6.55-9.08,15.18-15.9,26.72-17.95C435.89,397.48,438.22,396.75,439.94,399.09z"/>
			<path class="st13" d="M188.82,382.05c-2.63-1.91-4.94-3.98-2.15-7.39c1.78-2.17,3.75-2.7,6.29-0.74
			c14.7,11.36,31.96,16.44,49.8,19.98c4.49,0.89,5.92,2.34,5.06,6.33c-7.7-1.86-15.63-2.55-23.21-5.08
			c-9.73-3.24-19.22-6.96-28.36-11.59C193.88,382.36,191.54,381.36,188.82,382.05z"/>
			<path class="st14" d="M48.57,342.19c2.5,3.79,6.84,4.46,10.59,5.51c15.14,4.26,29.43,2.33,42.4-7.06
			c0.61-0.44,1.32-0.76,1.98-1.14c0.02,0.35,0.05,0.71,0.07,1.07c-6.97,7.09-15.89,9.74-25.38,10.98
			c-12.58,1.65-24.34-1.16-35.67-6.54c-2.34-1.11-4.86-2.79-7.7-1.03c-2.09-0.74-3.47-2.43-5.02-3.86c-1.89-1.74-3.54-3.83-1.4-6.3
			c2.15-2.49,4.98-2.42,7.35-0.4C39.76,336.79,44.11,339.56,48.57,342.19z"/>
			<path class="st15" d="M188.82,382.05c1.41-2.76,3.33-1.91,5.38-0.84c11.53,6.02,23.51,10.92,36.08,14.29
			c4.68,1.25,9.36,2.46,14.28,2.29c1.71-0.06,2.98,0.55,3.26,2.44c-1.16,2.17-3.07,2.99-5.37,2.6
			c-18.69-3.15-36.29-9.29-52.38-19.46C189.57,383.05,189.23,382.49,188.82,382.05z"/>
			<path class="st16" d="M301.94,433.44c3.41,4.06,7.11,1.63,10.26-0.05c3.75-2.01,6.62-5.23,8.99-8.91
			c7.85-12.17,15.25-24.59,21.52-37.65c0.39-0.81,0.97-1.52,1.45-2.28c0.38-0.29,0.74-0.26,1.06,0.09
			c-1.98,7.44-6.25,13.77-9.97,20.34c-3.75,6.61-7.47,13.3-11.95,19.41c-4.91,6.71-10.12,13.58-19.87,13.54
			c-2.06-0.01-3.9-0.66-5.75-1.34c-2.13-0.78-3.88-0.76-5.04,1.5c-1.62-1.38-3.37-2.63-4.83-4.16c-3.66-3.82-3.08-7.06,1.43-9.85
			c1.61-1,1.82,0.5,2.43,1.09C294.86,428.24,297.64,431.78,301.94,433.44z"/>
			<path class="st17" d="M507.81,545.25c-0.71-3.34,0.92-3.52,3.55-2.8c11.78,3.21,23.39,2.96,34.92-1.47
			c14.74-5.67,25.38-15.82,33.06-29.36c1.05-1.84,1.68-3.99,3.95-4.81c-9.31,24.09-33.5,43.38-61.21,41.37
			C517.19,547.82,512.39,547.03,507.81,545.25z"/>
			<path class="st18" d="M345.23,384.63c-0.35-0.03-0.71-0.06-1.06-0.09c1.18-4.8,4.07-8.79,6.25-13.11
			c7.47-14.78,14.27-29.93,24.01-43.45c7.43-10.32,16.01-19.13,29.21-21.85c2.29-0.47,4.55-0.24,6.81-0.56
			c6.92,0.8,12.74,4.06,18.17,8.18c0.97,0.74,2.04,1.43,1.92,2.9c-3.79-1.25-7.14-3.36-10.57-5.33
			c-11.45-6.59-23.28-3.47-32.28,4.58c-9.32,8.34-16.3,18.39-22.04,29.46C358.86,358.46,352.71,371.9,345.23,384.63z"/>
			<path class="st19" d="M266.21,354.29c-17.02-3.97-32.48-11.8-48.03-19.42c-3-1.47-6.13-2.91-8.71-4.98
			c-3.28-2.63-5.1-1.48-6.79,1.54c-1.7-2.13-0.99-4,0.78-5.59c1.68-1.51,3.76-1.55,5.53-0.38c16.41,10.83,34.85,17.31,52.81,24.82
			C263.67,351.08,266.06,351.5,266.21,354.29z"/>
			<path class="st20" d="M228.43,245.88c-1.47,0.81-2.62,0.37-3.52-0.93c-1-1.43-0.14-2.59,0.59-3.76
			c4.83-7.74,10.29-15.04,15.85-22.25c2.44-3.16,4.67-6.36,5.87-10.22c0.49-1.59,1.22-3.21,3.35-3.23
			c2.11,5.75-0.78,10.36-3.76,14.7C240.85,228.87,234.58,237.33,228.43,245.88z"/>
			<path class="st21" d="M223.91,255.11c1.17-2.07,2.51-2.83,5.21-2.23c9.15,2.05,18.45,1.73,27.71,0.56
			c2.3-0.29,4.37-0.41,4.81,2.61c-0.5,1.62-1.61,2.7-3.29,2.71c-8.81,0.05-17.64,1.89-26.4-0.03
			C229.1,258.1,225.93,257.77,223.91,255.11z"/>
			<path class="st22" d="M442.64,477.15c0.38-2.57,1.84-2.55,3.97-1.98c8.96,2.4,18.02,1.54,27,0.17c1.98-0.3,3.78-1.82,5.62-2.85
			c1.03-0.58,1.96-0.72,2.91,0.12c1.13,1,0.3,1.91-0.09,2.85C469.2,482.52,456.07,483.36,442.64,477.15z"/>
			<path class="st23" d="M335.13,393.81c-0.63,1.26-1.85,0.83-2.86,0.99c-9.4-4.16-19.2-7.4-28.36-12.12
			c0.21-3.76,2.15-5.57,5.71-4.3c8.16,2.91,16.29,6.01,23.52,10.93C334.62,390.32,336.18,391.57,335.13,393.81z"/>
			<path class="st24" d="M216.41,200.16c0.21-1.57,1.45-2.3,2.6-3.02c3.85-2.38,20.07,0.43,22.58,4.08c1.45,2.11,1.36,4.14-2.03,4.26
			c-5.99-2.46-12.3-3.26-18.71-3.52C219.15,201.89,217.43,201.88,216.41,200.16z"/>
			<path class="st25" d="M464.65,441.52c-15.06-2.38-23.03,9.14-25.67,23.68c-0.33,1.81-0.33,3.64-2.01,4.84
			c-3.09-7.78,0.46-18.93,8.29-26.01C450.58,439.23,458.16,438.24,464.65,441.52z"/>
			<path class="st26" d="M335.13,393.81c-0.44-3.28-3.35-4.3-5.63-5.45c-6.35-3.18-12.87-6.05-19.42-8.81
			c-2.95-1.24-5.39-0.46-6.16,3.12c-2.23-2.01-1.03-3.73,0.44-5.46c1.47-1.72,3.15-2.12,5.28-1.22c9.07,3.84,18.18,7.62,27.27,11.42
			C338.44,390.14,336.45,391.88,335.13,393.81z"/>
			<path class="st12" d="M511.24,442.67c-3.8,1.4-6.22,4.61-9.19,7.07c-3.84,3.18-7.36,6.75-11.16,10c-1.49,1.28-3.27,3.33-5.2,0.35
			c6.39-5.67,12.77-11.36,19.19-16.99C506.84,441.36,508.97,440.46,511.24,442.67z"/>
			<path class="st27" d="M460.72,471.95c-3.77-0.06-7.62,0.54-11.26-1.11c-4.18-1.89-5.61-4.81-4.42-9.24
			c0.08-0.29,0.18-0.58,0.27-0.87c4.42-13.73,12.24-15.97,22.9-6.35c3.38,3.05,6.21,6.71,9.42,9.96c2.17,2.19,1.04,3.3-1,4.47
			C471.68,471.66,466.33,472.41,460.72,471.95z"/>
		</g>
	</g>
</svg>
