<?xml version="1.0" encoding="UTF-8"?>
<svg width="195px" height="229px" viewBox="0 0 195 229" version="1.1" xmlns="http://www.w3.org/2000/svg" xmlns:xlink="http://www.w3.org/1999/xlink">
    <title>编组 7</title>
    <defs>
        <linearGradient x1="-12.089701%" y1="42.2391537%" x2="126.605428%" y2="52.9191747%" id="linearGradient-1">
            <stop stop-color="#D2DEFF" offset="0%"></stop>
            <stop stop-color="#6D81FF" offset="100%"></stop>
        </linearGradient>
        <linearGradient x1="47.6970579%" y1="36.0130005%" x2="58.9631932%" y2="55.5758261%" id="linearGradient-2">
            <stop stop-color="#EAEEFF" offset="0%"></stop>
            <stop stop-color="#98A2DC" offset="100%"></stop>
        </linearGradient>
        <linearGradient x1="56.8519344%" y1="-2.98388076%" x2="35.2527768%" y2="47.7695249%" id="linearGradient-3">
            <stop stop-color="#E3EBFF" offset="0%"></stop>
            <stop stop-color="#6D81FF" offset="100%"></stop>
        </linearGradient>
        <linearGradient x1="-12.089701%" y1="42.2391537%" x2="126.605428%" y2="52.9191747%" id="linearGradient-4">
            <stop stop-color="#D2DEFF" offset="0%"></stop>
            <stop stop-color="#6D81FF" offset="100%"></stop>
        </linearGradient>
        <linearGradient x1="47.6970579%" y1="36.0130005%" x2="58.9631932%" y2="55.5758261%" id="linearGradient-5">
            <stop stop-color="#EAEEFF" offset="0%"></stop>
            <stop stop-color="#98A2DC" offset="100%"></stop>
        </linearGradient>
        <linearGradient x1="71.9827469%" y1="-2.98388076%" x2="2.68716026%" y2="47.7695249%" id="linearGradient-6">
            <stop stop-color="#E3EBFF" offset="0%"></stop>
            <stop stop-color="#6D81FF" offset="100%"></stop>
        </linearGradient>
        <linearGradient x1="50%" y1="0%" x2="50%" y2="98.5385708%" id="linearGradient-7">
            <stop stop-color="#A9C0FF" offset="0%"></stop>
            <stop stop-color="#425BFF" offset="100%"></stop>
        </linearGradient>
    </defs>
    <g id="占位图、状态图" stroke="none" stroke-width="1" fill="none" fill-rule="evenodd">
        <g id="占位、状态图备份" transform="translate(-304.000000, -687.000000)">
            <g id="编组-7" transform="translate(304.000000, 687.007611)">
                <rect id="矩形备份" fill="#D8DCF3" x="45" y="94.9923894" width="105" height="55"></rect>
                <path d="M4.54747351e-13,136.903954 L45,94.9923894 L45,148.992389 L3.73783839,221.430406 C3.19112733,222.390188 1.9698737,222.725048 1.01009206,222.178337 C0.385609241,221.822619 4.78150481e-13,221.159188 4.54747351e-13,220.440499 L4.54747351e-13,136.903954 L4.54747351e-13,136.903954 Z" id="矩形" fill="#CED2ED"></path>
                <path d="M150,136.903954 L195,94.9923894 L195,148.992389 L153.737838,221.430406 C153.191127,222.390188 151.969874,222.725048 151.010092,222.178337 C150.385609,221.822619 150,221.159188 150,220.440499 L150,136.903954 L150,136.903954 Z" id="矩形" fill="#CED2ED" transform="translate(172.500000, 161.492389) scale(-1, 1) translate(-172.500000, -161.492389) "></path>
                <path d="M45,148.992389 L150,148.992389 L190.74222,220.51762 C192.108997,222.917074 191.271848,225.970208 188.872394,227.336985 C188.118326,227.766517 187.265446,227.992389 186.397624,227.992389 L8.60237627,227.992389 C5.84095252,227.992389 3.60237627,225.753813 3.60237627,222.992389 C3.60237627,222.124567 3.8282482,221.271687 4.2577803,220.51762 L45,148.992389 L45,148.992389 Z" id="矩形" fill="#BDC1D9"></path>
                <g id="编组-6" transform="translate(135.297251, 94.684213) rotate(5.000000) translate(-135.297251, -94.684213) translate(94.297251, 4.184213)">
                    <path d="M47.6997925,180.266144 C38.8648199,177.913672 32.7258219,175.61558 29.2827984,173.37187 C15.9541799,164.686026 7.35501354,150.989535 3.21541349,141.420478 C-5.01963915,122.384413 6.6775235,104.353321 20.2013223,103.538025 C30.5249562,103.146633 34.3075605,110.260677 32.3787514,114.089955 C30.4499423,117.919234 20.8651136,123.218846 12.1420783,116.251144 C3.41904288,109.283442 1.23632817,96.0795232 2.0236054,85.651251 C3.01318933,72.5432247 11.1253029,59.4586143 26.359946,46.3974198" id="路径-5" stroke="#547BF8" stroke-width="2.70000011" stroke-linecap="round" stroke-dasharray="4.500000178813934,4.500000178813934"></path>
                    <g id="编组-3" transform="translate(46.420919, 30.491738) rotate(19.000000) translate(-46.420919, -30.491738) translate(16.920919, 8.491738)">
                        <polygon id="路径-7" fill="#717CB8" points="18.1059386 42.0557807 33.8312425 32.5764438 27.0612843 28.7957316 21.4257727 33.9377316"></polygon>
                        <polygon id="矩形" fill="url(#linearGradient-1)" points="47.4392426 2.95104355 13.3056 30.4469663 0.332148201 24.2184759"></polygon>
                        <polygon id="路径-6" fill="url(#linearGradient-2)" points="13.3056 30.4469663 18.1059386 42.0557807 21.4257727 33.9377316 47.4392426 2.95104355"></polygon>
                        <polygon id="矩形" fill="url(#linearGradient-3)" transform="translate(40.069133, 22.233769) scale(-1, 1) rotate(-35.000000) translate(-40.069133, -22.233769) " points="45.2406212 1.95305161 48.6277628 42.5144861 31.5105036 34.393923"></polygon>
                    </g>
                </g>
                <g id="编组-3" transform="translate(58.000000, 69.492389) scale(-1, 1) translate(-58.000000, -69.492389) translate(43.000000, 57.992389)">
                    <polygon id="路径-7" fill="#717CB8" points="9.22061701 21.4728517 17.2288738 16.6454115 13.7812098 14.7200488 10.9112733 17.3386599"></polygon>
                    <polygon id="矩形" fill="url(#linearGradient-4)" points="24.1588739 1.55840188 6.77600013 15.5609554 0.16914955 12.3890389"></polygon>
                    <polygon id="路径-6" fill="url(#linearGradient-5)" points="6.77600013 15.5609554 9.22061701 21.4728517 10.9112733 17.3386599 24.1588739 1.55840188"></polygon>
                    <polygon id="矩形" fill="url(#linearGradient-6)" points="24.1722151 1.40740176 10.9112733 17.3386599 20.4239317 18.9510158"></polygon>
                </g>
                <path d="M0,136.992389 L54.1203509,136.992389 C56.3294898,136.992389 58.1203509,138.78325 58.1203509,140.992389 L58.1203509,167.70059 C58.1203509,169.909729 59.9112119,171.70059 62.1203509,171.70059 L131.438307,171.70059 C133.647446,171.70059 135.438307,169.909729 135.438307,167.70059 L135.438307,140.992389 C135.438307,138.78325 137.229168,136.992389 139.438307,136.992389 L195,136.992389 L195,136.992389 L195,219.992389 C195,224.410667 191.418278,227.992389 187,227.992389 L8,227.992389 C3.581722,227.992389 5.41083001e-16,224.410667 0,219.992389 L0,136.992389 L0,136.992389 Z" id="矩形" fill="url(#linearGradient-7)"></path>
            </g>
        </g>
    </g>
</svg>